G04 #@! TF.FileFunction,Soldermask,Bot*
%FSLAX46Y46*%
G04 Gerber Fmt 4.6, Leading zero omitted, Abs format (unit mm)*
G04 Created by KiCad (PCBNEW 4.0.2-stable) date 29/05/2019 20:06:32*
%MOMM*%
G01*
G04 APERTURE LIST*
%ADD10C,0.100000*%
%ADD11C,1.600000*%
%ADD12R,1.924000X1.924000*%
%ADD13O,1.900000X1.900000*%
%ADD14R,1.900000X1.900000*%
%ADD15C,1.900000*%
%ADD16C,1.700000*%
%ADD17O,3.900000X2.400000*%
%ADD18C,1.920000*%
%ADD19C,3.100000*%
%ADD20C,3.400000*%
%ADD21C,1.800000*%
G04 APERTURE END LIST*
D10*
D11*
X176725000Y-54700000D03*
X179225000Y-54700000D03*
X181725000Y-54700000D03*
D12*
X154575001Y-57865000D03*
D13*
X157115001Y-57865000D03*
X159655001Y-57865000D03*
X162195001Y-57865000D03*
X164735001Y-57865000D03*
X167275001Y-57865000D03*
X169815001Y-57865000D03*
X172355001Y-57865000D03*
D14*
X154575001Y-97235000D03*
D15*
X157115001Y-97235000D03*
X159655001Y-97235000D03*
X162195001Y-97235000D03*
X164735001Y-97235000D03*
X167275001Y-97235000D03*
X169815001Y-97235000D03*
X172355001Y-97235000D03*
D14*
X150775000Y-54775000D03*
D15*
X148235000Y-54775000D03*
X145695000Y-54775000D03*
X143155000Y-54775000D03*
D16*
X144400000Y-79850000D03*
X144400000Y-75350000D03*
D17*
X144400000Y-71750000D03*
X144400000Y-83450000D03*
D18*
X187900000Y-74740000D03*
X187900000Y-72200000D03*
X189900000Y-72200000D03*
X189900000Y-74740000D03*
D19*
X192600000Y-79470000D03*
X192600000Y-67470000D03*
D15*
X189900000Y-86290000D03*
X189900000Y-88830000D03*
X189900000Y-90860000D03*
X189900000Y-93400000D03*
D20*
X192570000Y-83240000D03*
X192570000Y-96960000D03*
D14*
X154900000Y-54800000D03*
D15*
X157440000Y-54800000D03*
D14*
X190800000Y-63775000D03*
D15*
X190800000Y-61235000D03*
D14*
X190875000Y-57125000D03*
D15*
X190875000Y-54585000D03*
D21*
X170388400Y-70310000D03*
X170388400Y-72850000D03*
X170388400Y-75390000D03*
X170388400Y-77930000D03*
X170388400Y-80470000D03*
X170388400Y-83010000D03*
X170388400Y-85550000D03*
X170388400Y-88090000D03*
X178211600Y-88090000D03*
X178186200Y-85550000D03*
X178186200Y-83010000D03*
X178186200Y-80470000D03*
X178186200Y-77930000D03*
X178186200Y-75390000D03*
X178186200Y-72850000D03*
X178186200Y-70310000D03*
D15*
X168000000Y-54900000D03*
X160500000Y-54900000D03*
M02*
