G04 #@! TF.FileFunction,Copper,L2,Bot,Signal*
%FSLAX46Y46*%
G04 Gerber Fmt 4.6, Leading zero omitted, Abs format (unit mm)*
G04 Created by KiCad (PCBNEW 4.0.2-stable) date 29/05/2019 20:06:32*
%MOMM*%
G01*
G04 APERTURE LIST*
%ADD10C,0.100000*%
%ADD11C,1.200000*%
%ADD12R,1.524000X1.524000*%
%ADD13O,1.500000X1.500000*%
%ADD14R,1.500000X1.500000*%
%ADD15C,1.500000*%
%ADD16O,3.500000X2.000000*%
%ADD17C,1.520000*%
%ADD18C,2.700000*%
%ADD19C,3.000000*%
%ADD20C,1.400000*%
%ADD21C,0.600000*%
%ADD22C,0.500000*%
%ADD23C,0.250000*%
%ADD24C,0.800000*%
%ADD25C,0.200000*%
G04 APERTURE END LIST*
D10*
D11*
X176725000Y-54700000D03*
X179225000Y-54700000D03*
X181725000Y-54700000D03*
D12*
X154575001Y-57865000D03*
D13*
X157115001Y-57865000D03*
X159655001Y-57865000D03*
X162195001Y-57865000D03*
X164735001Y-57865000D03*
X167275001Y-57865000D03*
X169815001Y-57865000D03*
X172355001Y-57865000D03*
D14*
X154575001Y-97235000D03*
D15*
X157115001Y-97235000D03*
X159655001Y-97235000D03*
X162195001Y-97235000D03*
X164735001Y-97235000D03*
X167275001Y-97235000D03*
X169815001Y-97235000D03*
X172355001Y-97235000D03*
D14*
X150775000Y-54775000D03*
D15*
X148235000Y-54775000D03*
X145695000Y-54775000D03*
X143155000Y-54775000D03*
D16*
X144400000Y-71750000D03*
X144400000Y-83450000D03*
D17*
X187900000Y-74740000D03*
X187900000Y-72200000D03*
X189900000Y-72200000D03*
X189900000Y-74740000D03*
D18*
X192600000Y-79470000D03*
X192600000Y-67470000D03*
D15*
X189900000Y-86290000D03*
X189900000Y-88830000D03*
X189900000Y-90860000D03*
X189900000Y-93400000D03*
D19*
X192570000Y-83240000D03*
X192570000Y-96960000D03*
D14*
X154900000Y-54800000D03*
D15*
X157440000Y-54800000D03*
D14*
X190800000Y-63775000D03*
D15*
X190800000Y-61235000D03*
D14*
X190875000Y-57125000D03*
D15*
X190875000Y-54585000D03*
D20*
X170388400Y-70310000D03*
X170388400Y-72850000D03*
X170388400Y-75390000D03*
X170388400Y-77930000D03*
X170388400Y-80470000D03*
X170388400Y-83010000D03*
X170388400Y-85550000D03*
X170388400Y-88090000D03*
X178211600Y-88090000D03*
X178186200Y-85550000D03*
X178186200Y-83010000D03*
X178186200Y-80470000D03*
X178186200Y-77930000D03*
X178186200Y-75390000D03*
X178186200Y-72850000D03*
X178186200Y-70310000D03*
D15*
X168000000Y-54900000D03*
X160500000Y-54900000D03*
D21*
X158725000Y-82250000D03*
X156825000Y-77575000D03*
X155150000Y-69950000D03*
X157862500Y-79062500D03*
X159825000Y-95600000D03*
X159850000Y-92925000D03*
X161975000Y-83325000D03*
X162200000Y-76200000D03*
X162175000Y-78575000D03*
X157650000Y-71125000D03*
X161300000Y-77700000D03*
X165275000Y-80925000D03*
X163175000Y-77700000D03*
X152875000Y-71050000D03*
X185575000Y-95875000D03*
X185575000Y-92275000D03*
X161575000Y-74600000D03*
X166800000Y-86675000D03*
X159925000Y-73650000D03*
X167575000Y-82175000D03*
X160250000Y-72275000D03*
X158425000Y-56725000D03*
X168250000Y-78125000D03*
X159250000Y-72275000D03*
X155750000Y-74525000D03*
X154350000Y-75575000D03*
X152575000Y-77350000D03*
X151825000Y-80375000D03*
X152625000Y-81575000D03*
X156025000Y-83550000D03*
X156350000Y-85550000D03*
X157150000Y-85950000D03*
X178075000Y-94100000D03*
X170388400Y-75390000D03*
X176500000Y-72875000D03*
D22*
X190800000Y-63775000D02*
X189075000Y-63775000D01*
X189050000Y-57125000D02*
X190875000Y-57125000D01*
X188075000Y-58100000D02*
X189050000Y-57125000D01*
X188075000Y-62775000D02*
X188075000Y-58100000D01*
X189075000Y-63775000D02*
X188075000Y-62775000D01*
X159800000Y-83325000D02*
X158725000Y-82250000D01*
X159800000Y-83325000D02*
X161975000Y-83325000D01*
X156850000Y-77550000D02*
X156825000Y-77575000D01*
X156850000Y-71650000D02*
X156850000Y-77550000D01*
X155150000Y-69950000D02*
X156850000Y-71650000D01*
X162100000Y-78650000D02*
X162175000Y-78575000D01*
X158275000Y-78650000D02*
X162100000Y-78650000D01*
X157862500Y-79062500D02*
X158275000Y-78650000D01*
X159825000Y-92950000D02*
X159825000Y-95600000D01*
X159850000Y-92925000D02*
X159825000Y-92950000D01*
X161975000Y-83325000D02*
X162175000Y-83125000D01*
X162175000Y-83125000D02*
X162175000Y-78575000D01*
X162175000Y-76225000D02*
X162175000Y-78575000D01*
X162200000Y-76200000D02*
X162175000Y-76225000D01*
X192570000Y-96960000D02*
X192570000Y-88620000D01*
X192570000Y-88620000D02*
X190240000Y-86290000D01*
X190240000Y-86290000D02*
X189900000Y-86290000D01*
X189900000Y-86290000D02*
X189900000Y-85910000D01*
X189900000Y-85910000D02*
X192570000Y-83240000D01*
X192600000Y-79470000D02*
X192600000Y-74900000D01*
X192600000Y-74900000D02*
X189900000Y-72200000D01*
X189900000Y-72200000D02*
X189900000Y-68800000D01*
X189900000Y-68800000D02*
X191230000Y-67470000D01*
X191230000Y-67470000D02*
X192600000Y-67470000D01*
X192570000Y-83240000D02*
X192570000Y-79500000D01*
X192570000Y-79500000D02*
X192600000Y-79470000D01*
X190800000Y-63775000D02*
X190800000Y-65670000D01*
X190800000Y-65670000D02*
X192600000Y-67470000D01*
X170388400Y-88090000D02*
X170540000Y-88090000D01*
X170540000Y-88090000D02*
X172355001Y-89905001D01*
X172355001Y-89905001D02*
X172355001Y-97235000D01*
X158975000Y-74725000D02*
X158975000Y-73350000D01*
X157650000Y-72025000D02*
X157650000Y-71125000D01*
X158975000Y-73350000D02*
X157650000Y-72025000D01*
X161300000Y-77700000D02*
X160600000Y-77000000D01*
X160600000Y-77000000D02*
X160600000Y-76350000D01*
X160600000Y-76350000D02*
X158975000Y-74725000D01*
X163175000Y-78825000D02*
X163175000Y-77700000D01*
X165275000Y-80925000D02*
X163175000Y-78825000D01*
X151850000Y-65000000D02*
X152925000Y-66075000D01*
X152925000Y-66075000D02*
X152925000Y-71000000D01*
X152925000Y-71000000D02*
X152875000Y-71050000D01*
X150700000Y-54800000D02*
X150700000Y-63850000D01*
X150700000Y-63850000D02*
X151850000Y-65000000D01*
D23*
X185575000Y-92275000D02*
X185575000Y-95875000D01*
X166625000Y-79650000D02*
X161575000Y-74600000D01*
X166625000Y-86500000D02*
X166625000Y-79650000D01*
X166800000Y-86675000D02*
X166625000Y-86500000D01*
X161725000Y-73650000D02*
X159925000Y-73650000D01*
X167600000Y-79525000D02*
X161725000Y-73650000D01*
X167600000Y-82150000D02*
X167600000Y-79525000D01*
X167575000Y-82175000D02*
X167600000Y-82150000D01*
X160250000Y-72275000D02*
X160250000Y-71675000D01*
X160250000Y-71675000D02*
X159225000Y-70650000D01*
X160300000Y-72325000D02*
X160525000Y-72325000D01*
X160250000Y-72275000D02*
X160300000Y-72325000D01*
X159225000Y-70650000D02*
X159225000Y-59725000D01*
X159225000Y-59725000D02*
X158425000Y-58925000D01*
X158425000Y-58925000D02*
X158425000Y-56725000D01*
X162450000Y-72325000D02*
X160525000Y-72325000D01*
X168250000Y-78125000D02*
X162450000Y-72325000D01*
X160075000Y-72975000D02*
X160075000Y-72925000D01*
X160075000Y-72925000D02*
X161875000Y-72925000D01*
X161875000Y-72925000D02*
X168325000Y-79375000D01*
X168325000Y-79375000D02*
X168325000Y-95744999D01*
X168325000Y-95744999D02*
X169815001Y-97235000D01*
X159250000Y-72275000D02*
X159900000Y-72925000D01*
X159900000Y-72925000D02*
X160025000Y-72925000D01*
X160025000Y-72925000D02*
X160075000Y-72975000D01*
X154575001Y-97235000D02*
X154575001Y-82075001D01*
X154475000Y-74525000D02*
X155750000Y-74525000D01*
X153425000Y-75575000D02*
X154475000Y-74525000D01*
X153425000Y-80925000D02*
X153425000Y-75575000D01*
X154575001Y-82075001D02*
X153425000Y-80925000D01*
X155325000Y-94875000D02*
X155325000Y-95444999D01*
X155325000Y-95444999D02*
X157115001Y-97235000D01*
X155100000Y-81800000D02*
X155325000Y-82025000D01*
X155325000Y-82025000D02*
X155325000Y-82800000D01*
X155300000Y-82825000D02*
X155325000Y-82825000D01*
X155325000Y-82800000D02*
X155300000Y-82825000D01*
X157115001Y-97235000D02*
X157115001Y-97015001D01*
X155325000Y-94875000D02*
X155325000Y-82825000D01*
X155325000Y-82825000D02*
X155325000Y-82025000D01*
X153900000Y-80600000D02*
X155100000Y-81800000D01*
X153900000Y-76025000D02*
X153900000Y-80600000D01*
X154350000Y-75575000D02*
X153900000Y-76025000D01*
X152575000Y-74800000D02*
X152575000Y-72625000D01*
X152575000Y-72625000D02*
X153825000Y-71375000D01*
X152575000Y-75750000D02*
X152575000Y-74800000D01*
X153825000Y-65700000D02*
X152575000Y-64450000D01*
X153825000Y-71375000D02*
X153825000Y-65700000D01*
X156090000Y-56150000D02*
X157440000Y-54800000D01*
X153775000Y-56150000D02*
X156090000Y-56150000D01*
X152575000Y-57350000D02*
X153775000Y-56150000D01*
X152575000Y-76350000D02*
X152575000Y-75750000D01*
X152575000Y-64450000D02*
X152575000Y-57350000D01*
X152575000Y-77350000D02*
X152575000Y-76350000D01*
X143080000Y-58380000D02*
X143080000Y-54800000D01*
X151375000Y-66675000D02*
X143080000Y-58380000D01*
X151375000Y-79925000D02*
X151375000Y-66675000D01*
X151825000Y-80375000D02*
X151375000Y-79925000D01*
X148160000Y-62535000D02*
X148160000Y-54800000D01*
X151850000Y-66225000D02*
X148160000Y-62535000D01*
X151850000Y-78700000D02*
X151850000Y-66225000D01*
X152600000Y-79450000D02*
X151850000Y-78700000D01*
X152600000Y-81550000D02*
X152600000Y-79450000D01*
X152625000Y-81575000D02*
X152600000Y-81550000D01*
X164735001Y-97235000D02*
X164735001Y-94035001D01*
X156025000Y-83675000D02*
X156025000Y-83550000D01*
X158400000Y-86050000D02*
X156025000Y-83675000D01*
X158400000Y-87700000D02*
X158400000Y-86050000D01*
X164735001Y-94035001D02*
X158400000Y-87700000D01*
X159050000Y-91400000D02*
X159050000Y-90400000D01*
X159050000Y-91400000D02*
X159050000Y-96629999D01*
X159050000Y-96629999D02*
X159655001Y-97235000D01*
X159050000Y-90400000D02*
X156350000Y-87700000D01*
X156350000Y-87700000D02*
X156350000Y-85550000D01*
X157900000Y-88275000D02*
X157900000Y-86700000D01*
X157900000Y-86700000D02*
X157150000Y-85950000D01*
X162195001Y-97235000D02*
X162195001Y-92570001D01*
X162195001Y-92570001D02*
X157900000Y-88275000D01*
D24*
X179200000Y-63025000D02*
X179200000Y-54600000D01*
X175250000Y-66975000D02*
X179200000Y-63025000D01*
X175250000Y-91275000D02*
X175250000Y-66975000D01*
X178075000Y-94100000D02*
X175250000Y-91275000D01*
X170388400Y-80470000D02*
X171695000Y-80470000D01*
X171825000Y-72850000D02*
X170388400Y-72850000D01*
X172375000Y-73400000D02*
X171825000Y-72850000D01*
X172375000Y-79790000D02*
X172375000Y-73400000D01*
X171695000Y-80470000D02*
X172375000Y-79790000D01*
X176475000Y-76218800D02*
X178186200Y-77930000D01*
X176475000Y-72900000D02*
X176475000Y-76218800D01*
X176500000Y-72875000D02*
X176475000Y-72900000D01*
X170388400Y-70310000D02*
X169340000Y-70310000D01*
X169415000Y-75390000D02*
X170388400Y-75390000D01*
X168625000Y-74600000D02*
X169415000Y-75390000D01*
X168625000Y-71025000D02*
X168625000Y-74600000D01*
X169340000Y-70310000D02*
X168625000Y-71025000D01*
D22*
X187900000Y-72200000D02*
X185475000Y-72200000D01*
X181725000Y-68450000D02*
X181725000Y-54700000D01*
X185475000Y-72200000D02*
X181725000Y-68450000D01*
D23*
X189900000Y-90860000D02*
X187710000Y-90860000D01*
X186350000Y-76290000D02*
X187900000Y-74740000D01*
X186350000Y-89500000D02*
X186350000Y-76290000D01*
X187710000Y-90860000D02*
X186350000Y-89500000D01*
X189900000Y-88830000D02*
X188380000Y-88830000D01*
X187600000Y-77040000D02*
X189900000Y-74740000D01*
X187600000Y-88050000D02*
X187600000Y-77040000D01*
X188380000Y-88830000D02*
X187600000Y-88050000D01*
D25*
G36*
X142567348Y-58892652D02*
X150650000Y-66975305D01*
X150650000Y-79925000D01*
X150696031Y-80156415D01*
X150705187Y-80202446D01*
X150862348Y-80437652D01*
X150924890Y-80500194D01*
X150924844Y-80553236D01*
X151061572Y-80884143D01*
X151314525Y-81137538D01*
X151645194Y-81274843D01*
X151775084Y-81274957D01*
X151725157Y-81395194D01*
X151724844Y-81753236D01*
X151861572Y-82084143D01*
X152114525Y-82337538D01*
X152445194Y-82474843D01*
X152803236Y-82475156D01*
X153134143Y-82338428D01*
X153387538Y-82085475D01*
X153438189Y-81963493D01*
X153850001Y-82375305D01*
X153850001Y-95873246D01*
X153825001Y-95873246D01*
X153602655Y-95915083D01*
X153398443Y-96046490D01*
X153261445Y-96246993D01*
X153213247Y-96485000D01*
X153213247Y-97985000D01*
X153244294Y-98150000D01*
X142550000Y-98150000D01*
X142550000Y-84587068D01*
X142895429Y-84869274D01*
X143496000Y-85050000D01*
X144246000Y-85050000D01*
X144246000Y-83604000D01*
X144554000Y-83604000D01*
X144554000Y-85050000D01*
X145304000Y-85050000D01*
X145904571Y-84869274D01*
X146390265Y-84472476D01*
X146687140Y-83920016D01*
X146698874Y-83851237D01*
X146591799Y-83604000D01*
X144554000Y-83604000D01*
X144246000Y-83604000D01*
X144226000Y-83604000D01*
X144226000Y-83296000D01*
X144246000Y-83296000D01*
X144246000Y-81850000D01*
X144554000Y-81850000D01*
X144554000Y-83296000D01*
X146591799Y-83296000D01*
X146698874Y-83048763D01*
X146687140Y-82979984D01*
X146390265Y-82427524D01*
X145904571Y-82030726D01*
X145304000Y-81850000D01*
X144554000Y-81850000D01*
X144246000Y-81850000D01*
X143496000Y-81850000D01*
X142895429Y-82030726D01*
X142550000Y-82312932D01*
X142550000Y-80097550D01*
X143149783Y-80097550D01*
X143339684Y-80557143D01*
X143691007Y-80909081D01*
X144150269Y-81099783D01*
X144647550Y-81100217D01*
X145107143Y-80910316D01*
X145459081Y-80558993D01*
X145649783Y-80099731D01*
X145650217Y-79602450D01*
X145460316Y-79142857D01*
X145108993Y-78790919D01*
X144649731Y-78600217D01*
X144152450Y-78599783D01*
X143692857Y-78789684D01*
X143340919Y-79141007D01*
X143150217Y-79600269D01*
X143149783Y-80097550D01*
X142550000Y-80097550D01*
X142550000Y-75597550D01*
X143149783Y-75597550D01*
X143339684Y-76057143D01*
X143691007Y-76409081D01*
X144150269Y-76599783D01*
X144647550Y-76600217D01*
X145107143Y-76410316D01*
X145459081Y-76058993D01*
X145649783Y-75599731D01*
X145650217Y-75102450D01*
X145460316Y-74642857D01*
X145108993Y-74290919D01*
X144649731Y-74100217D01*
X144152450Y-74099783D01*
X143692857Y-74289684D01*
X143340919Y-74641007D01*
X143150217Y-75100269D01*
X143149783Y-75597550D01*
X142550000Y-75597550D01*
X142550000Y-72887068D01*
X142895429Y-73169274D01*
X143496000Y-73350000D01*
X144246000Y-73350000D01*
X144246000Y-71904000D01*
X144554000Y-71904000D01*
X144554000Y-73350000D01*
X145304000Y-73350000D01*
X145904571Y-73169274D01*
X146390265Y-72772476D01*
X146687140Y-72220016D01*
X146698874Y-72151237D01*
X146591799Y-71904000D01*
X144554000Y-71904000D01*
X144246000Y-71904000D01*
X144226000Y-71904000D01*
X144226000Y-71596000D01*
X144246000Y-71596000D01*
X144246000Y-70150000D01*
X144554000Y-70150000D01*
X144554000Y-71596000D01*
X146591799Y-71596000D01*
X146698874Y-71348763D01*
X146687140Y-71279984D01*
X146390265Y-70727524D01*
X145904571Y-70330726D01*
X145304000Y-70150000D01*
X144554000Y-70150000D01*
X144246000Y-70150000D01*
X143496000Y-70150000D01*
X142895429Y-70330726D01*
X142550000Y-70612932D01*
X142550000Y-58866689D01*
X142567348Y-58892652D01*
X142567348Y-58892652D01*
G37*
X142567348Y-58892652D02*
X150650000Y-66975305D01*
X150650000Y-79925000D01*
X150696031Y-80156415D01*
X150705187Y-80202446D01*
X150862348Y-80437652D01*
X150924890Y-80500194D01*
X150924844Y-80553236D01*
X151061572Y-80884143D01*
X151314525Y-81137538D01*
X151645194Y-81274843D01*
X151775084Y-81274957D01*
X151725157Y-81395194D01*
X151724844Y-81753236D01*
X151861572Y-82084143D01*
X152114525Y-82337538D01*
X152445194Y-82474843D01*
X152803236Y-82475156D01*
X153134143Y-82338428D01*
X153387538Y-82085475D01*
X153438189Y-81963493D01*
X153850001Y-82375305D01*
X153850001Y-95873246D01*
X153825001Y-95873246D01*
X153602655Y-95915083D01*
X153398443Y-96046490D01*
X153261445Y-96246993D01*
X153213247Y-96485000D01*
X153213247Y-97985000D01*
X153244294Y-98150000D01*
X142550000Y-98150000D01*
X142550000Y-84587068D01*
X142895429Y-84869274D01*
X143496000Y-85050000D01*
X144246000Y-85050000D01*
X144246000Y-83604000D01*
X144554000Y-83604000D01*
X144554000Y-85050000D01*
X145304000Y-85050000D01*
X145904571Y-84869274D01*
X146390265Y-84472476D01*
X146687140Y-83920016D01*
X146698874Y-83851237D01*
X146591799Y-83604000D01*
X144554000Y-83604000D01*
X144246000Y-83604000D01*
X144226000Y-83604000D01*
X144226000Y-83296000D01*
X144246000Y-83296000D01*
X144246000Y-81850000D01*
X144554000Y-81850000D01*
X144554000Y-83296000D01*
X146591799Y-83296000D01*
X146698874Y-83048763D01*
X146687140Y-82979984D01*
X146390265Y-82427524D01*
X145904571Y-82030726D01*
X145304000Y-81850000D01*
X144554000Y-81850000D01*
X144246000Y-81850000D01*
X143496000Y-81850000D01*
X142895429Y-82030726D01*
X142550000Y-82312932D01*
X142550000Y-80097550D01*
X143149783Y-80097550D01*
X143339684Y-80557143D01*
X143691007Y-80909081D01*
X144150269Y-81099783D01*
X144647550Y-81100217D01*
X145107143Y-80910316D01*
X145459081Y-80558993D01*
X145649783Y-80099731D01*
X145650217Y-79602450D01*
X145460316Y-79142857D01*
X145108993Y-78790919D01*
X144649731Y-78600217D01*
X144152450Y-78599783D01*
X143692857Y-78789684D01*
X143340919Y-79141007D01*
X143150217Y-79600269D01*
X143149783Y-80097550D01*
X142550000Y-80097550D01*
X142550000Y-75597550D01*
X143149783Y-75597550D01*
X143339684Y-76057143D01*
X143691007Y-76409081D01*
X144150269Y-76599783D01*
X144647550Y-76600217D01*
X145107143Y-76410316D01*
X145459081Y-76058993D01*
X145649783Y-75599731D01*
X145650217Y-75102450D01*
X145460316Y-74642857D01*
X145108993Y-74290919D01*
X144649731Y-74100217D01*
X144152450Y-74099783D01*
X143692857Y-74289684D01*
X143340919Y-74641007D01*
X143150217Y-75100269D01*
X143149783Y-75597550D01*
X142550000Y-75597550D01*
X142550000Y-72887068D01*
X142895429Y-73169274D01*
X143496000Y-73350000D01*
X144246000Y-73350000D01*
X144246000Y-71904000D01*
X144554000Y-71904000D01*
X144554000Y-73350000D01*
X145304000Y-73350000D01*
X145904571Y-73169274D01*
X146390265Y-72772476D01*
X146687140Y-72220016D01*
X146698874Y-72151237D01*
X146591799Y-71904000D01*
X144554000Y-71904000D01*
X144246000Y-71904000D01*
X144226000Y-71904000D01*
X144226000Y-71596000D01*
X144246000Y-71596000D01*
X144246000Y-70150000D01*
X144554000Y-70150000D01*
X144554000Y-71596000D01*
X146591799Y-71596000D01*
X146698874Y-71348763D01*
X146687140Y-71279984D01*
X146390265Y-70727524D01*
X145904571Y-70330726D01*
X145304000Y-70150000D01*
X144554000Y-70150000D01*
X144246000Y-70150000D01*
X143496000Y-70150000D01*
X142895429Y-70330726D01*
X142550000Y-70612932D01*
X142550000Y-58866689D01*
X142567348Y-58892652D01*
G36*
X190111285Y-53439858D02*
X189731193Y-53819288D01*
X189525235Y-54315290D01*
X189524766Y-54852353D01*
X189729858Y-55348715D01*
X190109288Y-55728807D01*
X190220533Y-55775000D01*
X190005652Y-55775000D01*
X189785127Y-55866345D01*
X189616344Y-56035128D01*
X189525000Y-56255653D01*
X189525000Y-56821000D01*
X189675000Y-56971000D01*
X190721000Y-56971000D01*
X190721000Y-56951000D01*
X191029000Y-56951000D01*
X191029000Y-56971000D01*
X192075000Y-56971000D01*
X192225000Y-56821000D01*
X192225000Y-56255653D01*
X192133656Y-56035128D01*
X191964873Y-55866345D01*
X191744348Y-55775000D01*
X191530150Y-55775000D01*
X191638715Y-55730142D01*
X192018807Y-55350712D01*
X192224765Y-54854710D01*
X192225234Y-54317647D01*
X192020142Y-53821285D01*
X191640712Y-53441193D01*
X191360888Y-53325000D01*
X193750000Y-53325000D01*
X193750000Y-65993575D01*
X193640537Y-65775823D01*
X192912998Y-65506588D01*
X192137807Y-65536264D01*
X191559463Y-65775823D01*
X191413658Y-66065869D01*
X192600000Y-67252211D01*
X192614142Y-67238069D01*
X192831931Y-67455858D01*
X192817789Y-67470000D01*
X192831931Y-67484142D01*
X192614142Y-67701931D01*
X192600000Y-67687789D01*
X191413658Y-68874131D01*
X191559463Y-69164177D01*
X192287002Y-69433412D01*
X193062193Y-69403736D01*
X193640537Y-69164177D01*
X193750000Y-68946425D01*
X193750000Y-77993575D01*
X193640537Y-77775823D01*
X192912998Y-77506588D01*
X192137807Y-77536264D01*
X191559463Y-77775823D01*
X191413658Y-78065869D01*
X192600000Y-79252211D01*
X192614142Y-79238069D01*
X192831931Y-79455858D01*
X192817789Y-79470000D01*
X192831931Y-79484142D01*
X192614142Y-79701931D01*
X192600000Y-79687789D01*
X191413658Y-80874131D01*
X191559463Y-81164177D01*
X191824427Y-81262230D01*
X191439317Y-81421748D01*
X191275162Y-81727373D01*
X192570000Y-83022211D01*
X192584142Y-83008069D01*
X192801931Y-83225858D01*
X192787789Y-83240000D01*
X192801931Y-83254142D01*
X192584142Y-83471931D01*
X192570000Y-83457789D01*
X191275162Y-84752627D01*
X191439317Y-85058252D01*
X192221200Y-85352539D01*
X193056185Y-85325212D01*
X193700683Y-85058252D01*
X193750000Y-84966433D01*
X193750000Y-95233567D01*
X193700683Y-95141748D01*
X192918800Y-94847461D01*
X192083815Y-94874788D01*
X191439317Y-95141748D01*
X191275162Y-95447373D01*
X192570000Y-96742211D01*
X192584142Y-96728069D01*
X192801931Y-96945858D01*
X192787789Y-96960000D01*
X192801931Y-96974142D01*
X192584142Y-97191931D01*
X192570000Y-97177789D01*
X192555858Y-97191931D01*
X192338069Y-96974142D01*
X192352211Y-96960000D01*
X191057373Y-95665162D01*
X190751748Y-95829317D01*
X190457461Y-96611200D01*
X190484788Y-97446185D01*
X190751748Y-98090683D01*
X190862185Y-98150000D01*
X173383822Y-98150000D01*
X173435807Y-98098015D01*
X173324263Y-97986471D01*
X173552098Y-97914387D01*
X173720964Y-97404563D01*
X173681876Y-96868924D01*
X173552098Y-96555613D01*
X173324261Y-96483529D01*
X172572790Y-97235000D01*
X172586932Y-97249142D01*
X172369143Y-97466931D01*
X172355001Y-97452789D01*
X172340859Y-97466931D01*
X172123070Y-97249142D01*
X172137212Y-97235000D01*
X171385741Y-96483529D01*
X171157904Y-96555613D01*
X171085415Y-96774466D01*
X170960143Y-96471285D01*
X170754956Y-96265740D01*
X171603530Y-96265740D01*
X172355001Y-97017211D01*
X173106472Y-96265740D01*
X173034388Y-96037903D01*
X172524564Y-95869037D01*
X171988925Y-95908125D01*
X171675614Y-96037903D01*
X171603530Y-96265740D01*
X170754956Y-96265740D01*
X170580713Y-96091193D01*
X170084711Y-95885235D01*
X169547648Y-95884766D01*
X169506906Y-95901600D01*
X169050000Y-95444695D01*
X169050000Y-89022912D01*
X169673277Y-89022912D01*
X169739174Y-89245584D01*
X170230816Y-89406068D01*
X170746448Y-89366193D01*
X171037626Y-89245584D01*
X171103523Y-89022912D01*
X170388400Y-88307789D01*
X169673277Y-89022912D01*
X169050000Y-89022912D01*
X169050000Y-87932416D01*
X169072332Y-87932416D01*
X169112207Y-88448048D01*
X169232816Y-88739226D01*
X169455488Y-88805123D01*
X170170611Y-88090000D01*
X170606189Y-88090000D01*
X171321312Y-88805123D01*
X171543984Y-88739226D01*
X171704468Y-88247584D01*
X171664593Y-87731952D01*
X171543984Y-87440774D01*
X171321312Y-87374877D01*
X170606189Y-88090000D01*
X170170611Y-88090000D01*
X169455488Y-87374877D01*
X169232816Y-87440774D01*
X169072332Y-87932416D01*
X169050000Y-87932416D01*
X169050000Y-79375000D01*
X168994813Y-79097555D01*
X168916390Y-78980187D01*
X168837652Y-78862347D01*
X168811484Y-78836179D01*
X169012538Y-78635475D01*
X169143237Y-78320715D01*
X169285671Y-78665429D01*
X169651047Y-79031444D01*
X170057385Y-79200170D01*
X169652971Y-79367271D01*
X169286956Y-79732647D01*
X169088626Y-80210279D01*
X169088174Y-80727452D01*
X169285671Y-81205429D01*
X169651047Y-81571444D01*
X170057385Y-81740170D01*
X169652971Y-81907271D01*
X169286956Y-82272647D01*
X169088626Y-82750279D01*
X169088174Y-83267452D01*
X169285671Y-83745429D01*
X169651047Y-84111444D01*
X170057385Y-84280170D01*
X169652971Y-84447271D01*
X169286956Y-84812647D01*
X169088626Y-85290279D01*
X169088174Y-85807452D01*
X169285671Y-86285429D01*
X169651047Y-86651444D01*
X170040223Y-86813044D01*
X170030352Y-86813807D01*
X169739174Y-86934416D01*
X169673277Y-87157088D01*
X170388400Y-87872211D01*
X171103523Y-87157088D01*
X171037626Y-86934416D01*
X170704929Y-86825816D01*
X171123829Y-86652729D01*
X171489844Y-86287353D01*
X171688174Y-85809721D01*
X171688626Y-85292548D01*
X171491129Y-84814571D01*
X171125753Y-84448556D01*
X170719415Y-84279830D01*
X171123829Y-84112729D01*
X171489844Y-83747353D01*
X171688174Y-83269721D01*
X171688626Y-82752548D01*
X171491129Y-82274571D01*
X171125753Y-81908556D01*
X170719415Y-81739830D01*
X171123829Y-81572729D01*
X171226738Y-81470000D01*
X171695000Y-81470000D01*
X172077684Y-81393880D01*
X172402107Y-81177107D01*
X173082107Y-80497107D01*
X173100219Y-80470000D01*
X173298880Y-80172683D01*
X173375000Y-79790000D01*
X173375000Y-73400000D01*
X173298880Y-73017317D01*
X173082107Y-72692893D01*
X173082104Y-72692891D01*
X172532107Y-72142893D01*
X172207684Y-71926120D01*
X171825000Y-71850000D01*
X171227020Y-71850000D01*
X171125753Y-71748556D01*
X170719415Y-71579830D01*
X171123829Y-71412729D01*
X171489844Y-71047353D01*
X171688174Y-70569721D01*
X171688626Y-70052548D01*
X171491129Y-69574571D01*
X171125753Y-69208556D01*
X170648121Y-69010226D01*
X170130948Y-69009774D01*
X169652971Y-69207271D01*
X169550062Y-69310000D01*
X169340005Y-69310000D01*
X169340000Y-69309999D01*
X168957316Y-69386120D01*
X168632893Y-69602893D01*
X167917893Y-70317893D01*
X167701120Y-70642316D01*
X167629973Y-71000000D01*
X167625000Y-71025000D01*
X167625000Y-74600000D01*
X167701120Y-74982684D01*
X167917893Y-75307107D01*
X168707893Y-76097107D01*
X169032316Y-76313880D01*
X169415000Y-76390001D01*
X169415005Y-76390000D01*
X169549780Y-76390000D01*
X169651047Y-76491444D01*
X170057385Y-76660170D01*
X169652971Y-76827271D01*
X169286956Y-77192647D01*
X169088626Y-77670279D01*
X169088515Y-77797581D01*
X169013428Y-77615857D01*
X168760475Y-77362462D01*
X168429806Y-77225157D01*
X168375414Y-77225109D01*
X162962652Y-71812348D01*
X162727446Y-71655187D01*
X162681415Y-71646031D01*
X162450000Y-71600000D01*
X160960082Y-71600000D01*
X160919813Y-71397555D01*
X160919813Y-71397554D01*
X160762652Y-71162348D01*
X159950000Y-70349696D01*
X159950000Y-66975000D01*
X174250000Y-66975000D01*
X174250000Y-91275000D01*
X174326120Y-91657684D01*
X174542893Y-91982107D01*
X177367893Y-94807107D01*
X177692316Y-95023879D01*
X178075000Y-95100000D01*
X178457684Y-95023879D01*
X178782107Y-94807107D01*
X178998879Y-94482684D01*
X179075000Y-94100000D01*
X178998879Y-93717316D01*
X178782107Y-93392893D01*
X177842450Y-92453236D01*
X184674844Y-92453236D01*
X184811572Y-92784143D01*
X184850000Y-92822638D01*
X184850000Y-95327052D01*
X184812462Y-95364525D01*
X184675157Y-95695194D01*
X184674844Y-96053236D01*
X184811572Y-96384143D01*
X185064525Y-96637538D01*
X185395194Y-96774843D01*
X185753236Y-96775156D01*
X186084143Y-96638428D01*
X186337538Y-96385475D01*
X186474843Y-96054806D01*
X186475156Y-95696764D01*
X186338428Y-95365857D01*
X186300000Y-95327362D01*
X186300000Y-92822948D01*
X186337538Y-92785475D01*
X186474843Y-92454806D01*
X186475156Y-92096764D01*
X186338428Y-91765857D01*
X186085475Y-91512462D01*
X185754806Y-91375157D01*
X185396764Y-91374844D01*
X185065857Y-91511572D01*
X184812462Y-91764525D01*
X184675157Y-92095194D01*
X184674844Y-92453236D01*
X177842450Y-92453236D01*
X176250000Y-90860786D01*
X176250000Y-77408014D01*
X176886099Y-78044113D01*
X176885974Y-78187452D01*
X177083471Y-78665429D01*
X177448847Y-79031444D01*
X177855185Y-79200170D01*
X177450771Y-79367271D01*
X177084756Y-79732647D01*
X176886426Y-80210279D01*
X176885974Y-80727452D01*
X177083471Y-81205429D01*
X177448847Y-81571444D01*
X177855185Y-81740170D01*
X177450771Y-81907271D01*
X177084756Y-82272647D01*
X176886426Y-82750279D01*
X176885974Y-83267452D01*
X177083471Y-83745429D01*
X177448847Y-84111444D01*
X177855185Y-84280170D01*
X177450771Y-84447271D01*
X177084756Y-84812647D01*
X176886426Y-85290279D01*
X176885974Y-85807452D01*
X177083471Y-86285429D01*
X177448847Y-86651444D01*
X177867853Y-86825430D01*
X177476171Y-86987271D01*
X177110156Y-87352647D01*
X176911826Y-87830279D01*
X176911374Y-88347452D01*
X177108871Y-88825429D01*
X177474247Y-89191444D01*
X177951879Y-89389774D01*
X178469052Y-89390226D01*
X178947029Y-89192729D01*
X179313044Y-88827353D01*
X179511374Y-88349721D01*
X179511826Y-87832548D01*
X179314329Y-87354571D01*
X178948953Y-86988556D01*
X178529947Y-86814570D01*
X178921629Y-86652729D01*
X179287644Y-86287353D01*
X179485974Y-85809721D01*
X179486426Y-85292548D01*
X179288929Y-84814571D01*
X178923553Y-84448556D01*
X178517215Y-84279830D01*
X178921629Y-84112729D01*
X179287644Y-83747353D01*
X179485974Y-83269721D01*
X179486426Y-82752548D01*
X179288929Y-82274571D01*
X178923553Y-81908556D01*
X178517215Y-81739830D01*
X178921629Y-81572729D01*
X179287644Y-81207353D01*
X179485974Y-80729721D01*
X179486426Y-80212548D01*
X179288929Y-79734571D01*
X178923553Y-79368556D01*
X178517215Y-79199830D01*
X178921629Y-79032729D01*
X179287644Y-78667353D01*
X179485974Y-78189721D01*
X179486426Y-77672548D01*
X179288929Y-77194571D01*
X178923553Y-76828556D01*
X178517215Y-76659830D01*
X178921629Y-76492729D01*
X179287644Y-76127353D01*
X179485974Y-75649721D01*
X179486426Y-75132548D01*
X179288929Y-74654571D01*
X178923553Y-74288556D01*
X178517215Y-74119830D01*
X178921629Y-73952729D01*
X179287644Y-73587353D01*
X179485974Y-73109721D01*
X179486426Y-72592548D01*
X179288929Y-72114571D01*
X178923553Y-71748556D01*
X178517215Y-71579830D01*
X178921629Y-71412729D01*
X179287644Y-71047353D01*
X179485974Y-70569721D01*
X179486426Y-70052548D01*
X179288929Y-69574571D01*
X178923553Y-69208556D01*
X178445921Y-69010226D01*
X177928748Y-69009774D01*
X177450771Y-69207271D01*
X177084756Y-69572647D01*
X176886426Y-70050279D01*
X176885974Y-70567452D01*
X177083471Y-71045429D01*
X177448847Y-71411444D01*
X177855185Y-71580170D01*
X177450771Y-71747271D01*
X177100662Y-72096769D01*
X176882684Y-71951121D01*
X176500000Y-71875000D01*
X176250000Y-71924728D01*
X176250000Y-67389214D01*
X179907104Y-63732109D01*
X179907107Y-63732107D01*
X180081573Y-63471000D01*
X180123880Y-63407684D01*
X180200001Y-63025000D01*
X180200000Y-63024995D01*
X180200000Y-55422277D01*
X180241717Y-55380633D01*
X180424791Y-54939742D01*
X180424792Y-54937647D01*
X180524793Y-54937647D01*
X180707097Y-55378857D01*
X180875000Y-55547054D01*
X180875000Y-68450000D01*
X180939702Y-68775281D01*
X181123959Y-69051041D01*
X184873959Y-72801041D01*
X185149719Y-72985298D01*
X185475000Y-73050000D01*
X186826863Y-73050000D01*
X187128616Y-73352280D01*
X187412198Y-73470033D01*
X187130628Y-73586376D01*
X186747720Y-73968616D01*
X186540237Y-74468292D01*
X186539764Y-75009334D01*
X186558944Y-75055752D01*
X185837348Y-75777348D01*
X185680187Y-76012554D01*
X185677225Y-76027445D01*
X185625000Y-76290000D01*
X185625000Y-89500000D01*
X185659810Y-89675000D01*
X185680187Y-89777446D01*
X185837348Y-90012652D01*
X187197347Y-91372652D01*
X187354508Y-91477663D01*
X187432555Y-91529813D01*
X187710000Y-91585000D01*
X188738861Y-91585000D01*
X188754858Y-91623715D01*
X189134288Y-92003807D01*
X189438330Y-92130056D01*
X189136285Y-92254858D01*
X188756193Y-92634288D01*
X188550235Y-93130290D01*
X188549766Y-93667353D01*
X188754858Y-94163715D01*
X189134288Y-94543807D01*
X189630290Y-94749765D01*
X190167353Y-94750234D01*
X190663715Y-94545142D01*
X191043807Y-94165712D01*
X191249765Y-93669710D01*
X191250234Y-93132647D01*
X191045142Y-92636285D01*
X190665712Y-92256193D01*
X190361670Y-92129944D01*
X190663715Y-92005142D01*
X191043807Y-91625712D01*
X191249765Y-91129710D01*
X191250234Y-90592647D01*
X191045142Y-90096285D01*
X190794190Y-89844895D01*
X191043807Y-89595712D01*
X191249765Y-89099710D01*
X191250234Y-88562647D01*
X191045142Y-88066285D01*
X190665712Y-87686193D01*
X190382569Y-87568622D01*
X190579387Y-87487097D01*
X190651471Y-87259260D01*
X189900000Y-86507789D01*
X189148529Y-87259260D01*
X189220613Y-87487097D01*
X189439466Y-87559586D01*
X189136285Y-87684858D01*
X188756193Y-88064288D01*
X188739288Y-88105000D01*
X188680305Y-88105000D01*
X188325000Y-87749696D01*
X188325000Y-86120437D01*
X188534037Y-86120437D01*
X188573125Y-86656076D01*
X188702903Y-86969387D01*
X188930740Y-87041471D01*
X189682211Y-86290000D01*
X190117789Y-86290000D01*
X190869260Y-87041471D01*
X191097097Y-86969387D01*
X191265963Y-86459563D01*
X191226875Y-85923924D01*
X191097097Y-85610613D01*
X190869260Y-85538529D01*
X190117789Y-86290000D01*
X189682211Y-86290000D01*
X188930740Y-85538529D01*
X188702903Y-85610613D01*
X188534037Y-86120437D01*
X188325000Y-86120437D01*
X188325000Y-85320740D01*
X189148529Y-85320740D01*
X189900000Y-86072211D01*
X190651471Y-85320740D01*
X190579387Y-85092903D01*
X190069563Y-84924037D01*
X189533924Y-84963125D01*
X189220613Y-85092903D01*
X189148529Y-85320740D01*
X188325000Y-85320740D01*
X188325000Y-82891200D01*
X190457461Y-82891200D01*
X190484788Y-83726185D01*
X190751748Y-84370683D01*
X191057373Y-84534838D01*
X192352211Y-83240000D01*
X191057373Y-81945162D01*
X190751748Y-82109317D01*
X190457461Y-82891200D01*
X188325000Y-82891200D01*
X188325000Y-79157002D01*
X190636588Y-79157002D01*
X190666264Y-79932193D01*
X190905823Y-80510537D01*
X191195869Y-80656342D01*
X192382211Y-79470000D01*
X191195869Y-78283658D01*
X190905823Y-78429463D01*
X190636588Y-79157002D01*
X188325000Y-79157002D01*
X188325000Y-77340304D01*
X189583953Y-76081352D01*
X189628292Y-76099763D01*
X190169334Y-76100236D01*
X190669372Y-75893624D01*
X191052280Y-75511384D01*
X191259763Y-75011708D01*
X191260236Y-74470666D01*
X191053624Y-73970628D01*
X190671384Y-73587720D01*
X190408644Y-73478621D01*
X190585418Y-73405398D01*
X190658738Y-73176527D01*
X189900000Y-72417789D01*
X189141262Y-73176527D01*
X189214582Y-73405398D01*
X189410854Y-73470589D01*
X189130628Y-73586376D01*
X188899933Y-73816668D01*
X188671384Y-73587720D01*
X188387802Y-73469967D01*
X188669372Y-73353624D01*
X189052280Y-72971384D01*
X189152724Y-72729487D01*
X189682211Y-72200000D01*
X190117789Y-72200000D01*
X190876527Y-72958738D01*
X191105398Y-72885418D01*
X191275941Y-72371958D01*
X191237010Y-71832319D01*
X191105398Y-71514582D01*
X190876527Y-71441262D01*
X190117789Y-72200000D01*
X189682211Y-72200000D01*
X189152756Y-71670545D01*
X189053624Y-71430628D01*
X188846831Y-71223473D01*
X189141262Y-71223473D01*
X189900000Y-71982211D01*
X190658738Y-71223473D01*
X190585418Y-70994602D01*
X190071958Y-70824059D01*
X189532319Y-70862990D01*
X189214582Y-70994602D01*
X189141262Y-71223473D01*
X188846831Y-71223473D01*
X188671384Y-71047720D01*
X188171708Y-70840237D01*
X187630666Y-70839764D01*
X187130628Y-71046376D01*
X186826473Y-71350000D01*
X185827082Y-71350000D01*
X182575000Y-68097918D01*
X182575000Y-67157002D01*
X190636588Y-67157002D01*
X190666264Y-67932193D01*
X190905823Y-68510537D01*
X191195869Y-68656342D01*
X192382211Y-67470000D01*
X191195869Y-66283658D01*
X190905823Y-66429463D01*
X190636588Y-67157002D01*
X182575000Y-67157002D01*
X182575000Y-64079000D01*
X189450000Y-64079000D01*
X189450000Y-64644347D01*
X189541344Y-64864872D01*
X189710127Y-65033655D01*
X189930652Y-65125000D01*
X190496000Y-65125000D01*
X190646000Y-64975000D01*
X190646000Y-63929000D01*
X190954000Y-63929000D01*
X190954000Y-64975000D01*
X191104000Y-65125000D01*
X191669348Y-65125000D01*
X191889873Y-65033655D01*
X192058656Y-64864872D01*
X192150000Y-64644347D01*
X192150000Y-64079000D01*
X192000000Y-63929000D01*
X190954000Y-63929000D01*
X190646000Y-63929000D01*
X189600000Y-63929000D01*
X189450000Y-64079000D01*
X182575000Y-64079000D01*
X182575000Y-61502353D01*
X189449766Y-61502353D01*
X189654858Y-61998715D01*
X190034288Y-62378807D01*
X190145533Y-62425000D01*
X189930652Y-62425000D01*
X189710127Y-62516345D01*
X189541344Y-62685128D01*
X189450000Y-62905653D01*
X189450000Y-63471000D01*
X189600000Y-63621000D01*
X190646000Y-63621000D01*
X190646000Y-63601000D01*
X190954000Y-63601000D01*
X190954000Y-63621000D01*
X192000000Y-63621000D01*
X192150000Y-63471000D01*
X192150000Y-62905653D01*
X192058656Y-62685128D01*
X191889873Y-62516345D01*
X191669348Y-62425000D01*
X191455150Y-62425000D01*
X191563715Y-62380142D01*
X191943807Y-62000712D01*
X192149765Y-61504710D01*
X192150234Y-60967647D01*
X191945142Y-60471285D01*
X191565712Y-60091193D01*
X191069710Y-59885235D01*
X190532647Y-59884766D01*
X190036285Y-60089858D01*
X189656193Y-60469288D01*
X189450235Y-60965290D01*
X189449766Y-61502353D01*
X182575000Y-61502353D01*
X182575000Y-57429000D01*
X189525000Y-57429000D01*
X189525000Y-57994347D01*
X189616344Y-58214872D01*
X189785127Y-58383655D01*
X190005652Y-58475000D01*
X190571000Y-58475000D01*
X190721000Y-58325000D01*
X190721000Y-57279000D01*
X191029000Y-57279000D01*
X191029000Y-58325000D01*
X191179000Y-58475000D01*
X191744348Y-58475000D01*
X191964873Y-58383655D01*
X192133656Y-58214872D01*
X192225000Y-57994347D01*
X192225000Y-57429000D01*
X192075000Y-57279000D01*
X191029000Y-57279000D01*
X190721000Y-57279000D01*
X189675000Y-57279000D01*
X189525000Y-57429000D01*
X182575000Y-57429000D01*
X182575000Y-55547059D01*
X182741717Y-55380633D01*
X182924791Y-54939742D01*
X182925207Y-54462353D01*
X182742903Y-54021143D01*
X182405633Y-53683283D01*
X181964742Y-53500209D01*
X181487353Y-53499793D01*
X181046143Y-53682097D01*
X180708283Y-54019367D01*
X180525209Y-54460258D01*
X180524793Y-54937647D01*
X180424792Y-54937647D01*
X180425207Y-54462353D01*
X180242903Y-54021143D01*
X179905633Y-53683283D01*
X179464742Y-53500209D01*
X178987353Y-53499793D01*
X178546143Y-53682097D01*
X178208283Y-54019367D01*
X178025209Y-54460258D01*
X178024793Y-54937647D01*
X178200000Y-55361681D01*
X178200000Y-62610787D01*
X174542893Y-66267893D01*
X174326120Y-66592316D01*
X174265950Y-66894813D01*
X174250000Y-66975000D01*
X159950000Y-66975000D01*
X159950000Y-59725000D01*
X159894813Y-59447555D01*
X159894813Y-59447554D01*
X159737653Y-59212348D01*
X159730540Y-59205235D01*
X160198072Y-59112237D01*
X160636043Y-58819594D01*
X160925001Y-58387138D01*
X161213959Y-58819594D01*
X161651930Y-59112237D01*
X162168553Y-59215000D01*
X162221449Y-59215000D01*
X162738072Y-59112237D01*
X163176043Y-58819594D01*
X163465001Y-58387138D01*
X163753959Y-58819594D01*
X164191930Y-59112237D01*
X164708553Y-59215000D01*
X164761449Y-59215000D01*
X165278072Y-59112237D01*
X165716043Y-58819594D01*
X166005001Y-58387138D01*
X166293959Y-58819594D01*
X166731930Y-59112237D01*
X167248553Y-59215000D01*
X167301449Y-59215000D01*
X167818072Y-59112237D01*
X168256043Y-58819594D01*
X168545001Y-58387138D01*
X168833959Y-58819594D01*
X169271930Y-59112237D01*
X169788553Y-59215000D01*
X169841449Y-59215000D01*
X170358072Y-59112237D01*
X170796043Y-58819594D01*
X171085001Y-58387138D01*
X171373959Y-58819594D01*
X171811930Y-59112237D01*
X172328553Y-59215000D01*
X172381449Y-59215000D01*
X172898072Y-59112237D01*
X173336043Y-58819594D01*
X173628686Y-58381623D01*
X173731449Y-57865000D01*
X173628686Y-57348377D01*
X173336043Y-56910406D01*
X172898072Y-56617763D01*
X172381449Y-56515000D01*
X172328553Y-56515000D01*
X171811930Y-56617763D01*
X171373959Y-56910406D01*
X171085001Y-57342862D01*
X170796043Y-56910406D01*
X170358072Y-56617763D01*
X169841449Y-56515000D01*
X169788553Y-56515000D01*
X169271930Y-56617763D01*
X168833959Y-56910406D01*
X168545001Y-57342862D01*
X168256043Y-56910406D01*
X167818072Y-56617763D01*
X167301449Y-56515000D01*
X167248553Y-56515000D01*
X166731930Y-56617763D01*
X166293959Y-56910406D01*
X166005001Y-57342862D01*
X165716043Y-56910406D01*
X165278072Y-56617763D01*
X164761449Y-56515000D01*
X164708553Y-56515000D01*
X164191930Y-56617763D01*
X163753959Y-56910406D01*
X163465001Y-57342862D01*
X163176043Y-56910406D01*
X162738072Y-56617763D01*
X162221449Y-56515000D01*
X162168553Y-56515000D01*
X161651930Y-56617763D01*
X161213959Y-56910406D01*
X160925001Y-57342862D01*
X160636043Y-56910406D01*
X160198072Y-56617763D01*
X159681449Y-56515000D01*
X159628553Y-56515000D01*
X159325131Y-56575355D01*
X159325156Y-56546764D01*
X159188428Y-56215857D01*
X158935475Y-55962462D01*
X158604806Y-55825157D01*
X158324155Y-55824912D01*
X158583807Y-55565712D01*
X158789765Y-55069710D01*
X158789880Y-54937647D01*
X175524793Y-54937647D01*
X175707097Y-55378857D01*
X176044367Y-55716717D01*
X176485258Y-55899791D01*
X176962647Y-55900207D01*
X177403857Y-55717903D01*
X177741717Y-55380633D01*
X177924791Y-54939742D01*
X177925207Y-54462353D01*
X177742903Y-54021143D01*
X177405633Y-53683283D01*
X176964742Y-53500209D01*
X176487353Y-53499793D01*
X176046143Y-53682097D01*
X175708283Y-54019367D01*
X175525209Y-54460258D01*
X175524793Y-54937647D01*
X158789880Y-54937647D01*
X158790234Y-54532647D01*
X158585142Y-54036285D01*
X158205712Y-53656193D01*
X157709710Y-53450235D01*
X157172647Y-53449766D01*
X156676285Y-53654858D01*
X156296193Y-54034288D01*
X156250000Y-54145533D01*
X156250000Y-53930652D01*
X156158655Y-53710127D01*
X155989872Y-53541344D01*
X155769347Y-53450000D01*
X155204000Y-53450000D01*
X155054000Y-53600000D01*
X155054000Y-54646000D01*
X155074000Y-54646000D01*
X155074000Y-54954000D01*
X155054000Y-54954000D01*
X155054000Y-54974000D01*
X154746000Y-54974000D01*
X154746000Y-54954000D01*
X153700000Y-54954000D01*
X153550000Y-55104000D01*
X153550000Y-55469755D01*
X153497555Y-55480187D01*
X153497553Y-55480188D01*
X153497554Y-55480188D01*
X153262347Y-55637348D01*
X152062348Y-56837348D01*
X151905187Y-57072554D01*
X151905187Y-57072555D01*
X151850000Y-57350000D01*
X151850000Y-63797918D01*
X151550000Y-63497918D01*
X151550000Y-56132050D01*
X151747346Y-56094917D01*
X151951558Y-55963510D01*
X152088556Y-55763007D01*
X152136754Y-55525000D01*
X152136754Y-54025000D01*
X152119002Y-53930652D01*
X153550000Y-53930652D01*
X153550000Y-54496000D01*
X153700000Y-54646000D01*
X154746000Y-54646000D01*
X154746000Y-53600000D01*
X154596000Y-53450000D01*
X154030653Y-53450000D01*
X153810128Y-53541344D01*
X153641345Y-53710127D01*
X153550000Y-53930652D01*
X152119002Y-53930652D01*
X152094917Y-53802654D01*
X151963510Y-53598442D01*
X151763007Y-53461444D01*
X151525000Y-53413246D01*
X150025000Y-53413246D01*
X149802654Y-53455083D01*
X149598442Y-53586490D01*
X149461444Y-53786993D01*
X149413246Y-54025000D01*
X149413246Y-54091403D01*
X149380142Y-54011285D01*
X149000712Y-53631193D01*
X148504710Y-53425235D01*
X147967647Y-53424766D01*
X147471285Y-53629858D01*
X147091193Y-54009288D01*
X146973622Y-54292431D01*
X146892097Y-54095613D01*
X146664260Y-54023529D01*
X145912789Y-54775000D01*
X146664260Y-55526471D01*
X146892097Y-55454387D01*
X146964586Y-55235534D01*
X147089858Y-55538715D01*
X147435000Y-55884459D01*
X147435000Y-61709696D01*
X143805000Y-58079696D01*
X143805000Y-55967128D01*
X143918715Y-55920142D01*
X144094903Y-55744260D01*
X144943529Y-55744260D01*
X145015613Y-55972097D01*
X145525437Y-56140963D01*
X146061076Y-56101875D01*
X146374387Y-55972097D01*
X146446471Y-55744260D01*
X145695000Y-54992789D01*
X144943529Y-55744260D01*
X144094903Y-55744260D01*
X144298807Y-55540712D01*
X144416378Y-55257569D01*
X144497903Y-55454387D01*
X144725740Y-55526471D01*
X145477211Y-54775000D01*
X144725740Y-54023529D01*
X144497903Y-54095613D01*
X144425414Y-54314466D01*
X144300142Y-54011285D01*
X144094955Y-53805740D01*
X144943529Y-53805740D01*
X145695000Y-54557211D01*
X146446471Y-53805740D01*
X146374387Y-53577903D01*
X145864563Y-53409037D01*
X145328924Y-53448125D01*
X145015613Y-53577903D01*
X144943529Y-53805740D01*
X144094955Y-53805740D01*
X143920712Y-53631193D01*
X143424710Y-53425235D01*
X142887647Y-53424766D01*
X142550000Y-53564278D01*
X142550000Y-53325000D01*
X190389263Y-53325000D01*
X190111285Y-53439858D01*
X190111285Y-53439858D01*
G37*
X190111285Y-53439858D02*
X189731193Y-53819288D01*
X189525235Y-54315290D01*
X189524766Y-54852353D01*
X189729858Y-55348715D01*
X190109288Y-55728807D01*
X190220533Y-55775000D01*
X190005652Y-55775000D01*
X189785127Y-55866345D01*
X189616344Y-56035128D01*
X189525000Y-56255653D01*
X189525000Y-56821000D01*
X189675000Y-56971000D01*
X190721000Y-56971000D01*
X190721000Y-56951000D01*
X191029000Y-56951000D01*
X191029000Y-56971000D01*
X192075000Y-56971000D01*
X192225000Y-56821000D01*
X192225000Y-56255653D01*
X192133656Y-56035128D01*
X191964873Y-55866345D01*
X191744348Y-55775000D01*
X191530150Y-55775000D01*
X191638715Y-55730142D01*
X192018807Y-55350712D01*
X192224765Y-54854710D01*
X192225234Y-54317647D01*
X192020142Y-53821285D01*
X191640712Y-53441193D01*
X191360888Y-53325000D01*
X193750000Y-53325000D01*
X193750000Y-65993575D01*
X193640537Y-65775823D01*
X192912998Y-65506588D01*
X192137807Y-65536264D01*
X191559463Y-65775823D01*
X191413658Y-66065869D01*
X192600000Y-67252211D01*
X192614142Y-67238069D01*
X192831931Y-67455858D01*
X192817789Y-67470000D01*
X192831931Y-67484142D01*
X192614142Y-67701931D01*
X192600000Y-67687789D01*
X191413658Y-68874131D01*
X191559463Y-69164177D01*
X192287002Y-69433412D01*
X193062193Y-69403736D01*
X193640537Y-69164177D01*
X193750000Y-68946425D01*
X193750000Y-77993575D01*
X193640537Y-77775823D01*
X192912998Y-77506588D01*
X192137807Y-77536264D01*
X191559463Y-77775823D01*
X191413658Y-78065869D01*
X192600000Y-79252211D01*
X192614142Y-79238069D01*
X192831931Y-79455858D01*
X192817789Y-79470000D01*
X192831931Y-79484142D01*
X192614142Y-79701931D01*
X192600000Y-79687789D01*
X191413658Y-80874131D01*
X191559463Y-81164177D01*
X191824427Y-81262230D01*
X191439317Y-81421748D01*
X191275162Y-81727373D01*
X192570000Y-83022211D01*
X192584142Y-83008069D01*
X192801931Y-83225858D01*
X192787789Y-83240000D01*
X192801931Y-83254142D01*
X192584142Y-83471931D01*
X192570000Y-83457789D01*
X191275162Y-84752627D01*
X191439317Y-85058252D01*
X192221200Y-85352539D01*
X193056185Y-85325212D01*
X193700683Y-85058252D01*
X193750000Y-84966433D01*
X193750000Y-95233567D01*
X193700683Y-95141748D01*
X192918800Y-94847461D01*
X192083815Y-94874788D01*
X191439317Y-95141748D01*
X191275162Y-95447373D01*
X192570000Y-96742211D01*
X192584142Y-96728069D01*
X192801931Y-96945858D01*
X192787789Y-96960000D01*
X192801931Y-96974142D01*
X192584142Y-97191931D01*
X192570000Y-97177789D01*
X192555858Y-97191931D01*
X192338069Y-96974142D01*
X192352211Y-96960000D01*
X191057373Y-95665162D01*
X190751748Y-95829317D01*
X190457461Y-96611200D01*
X190484788Y-97446185D01*
X190751748Y-98090683D01*
X190862185Y-98150000D01*
X173383822Y-98150000D01*
X173435807Y-98098015D01*
X173324263Y-97986471D01*
X173552098Y-97914387D01*
X173720964Y-97404563D01*
X173681876Y-96868924D01*
X173552098Y-96555613D01*
X173324261Y-96483529D01*
X172572790Y-97235000D01*
X172586932Y-97249142D01*
X172369143Y-97466931D01*
X172355001Y-97452789D01*
X172340859Y-97466931D01*
X172123070Y-97249142D01*
X172137212Y-97235000D01*
X171385741Y-96483529D01*
X171157904Y-96555613D01*
X171085415Y-96774466D01*
X170960143Y-96471285D01*
X170754956Y-96265740D01*
X171603530Y-96265740D01*
X172355001Y-97017211D01*
X173106472Y-96265740D01*
X173034388Y-96037903D01*
X172524564Y-95869037D01*
X171988925Y-95908125D01*
X171675614Y-96037903D01*
X171603530Y-96265740D01*
X170754956Y-96265740D01*
X170580713Y-96091193D01*
X170084711Y-95885235D01*
X169547648Y-95884766D01*
X169506906Y-95901600D01*
X169050000Y-95444695D01*
X169050000Y-89022912D01*
X169673277Y-89022912D01*
X169739174Y-89245584D01*
X170230816Y-89406068D01*
X170746448Y-89366193D01*
X171037626Y-89245584D01*
X171103523Y-89022912D01*
X170388400Y-88307789D01*
X169673277Y-89022912D01*
X169050000Y-89022912D01*
X169050000Y-87932416D01*
X169072332Y-87932416D01*
X169112207Y-88448048D01*
X169232816Y-88739226D01*
X169455488Y-88805123D01*
X170170611Y-88090000D01*
X170606189Y-88090000D01*
X171321312Y-88805123D01*
X171543984Y-88739226D01*
X171704468Y-88247584D01*
X171664593Y-87731952D01*
X171543984Y-87440774D01*
X171321312Y-87374877D01*
X170606189Y-88090000D01*
X170170611Y-88090000D01*
X169455488Y-87374877D01*
X169232816Y-87440774D01*
X169072332Y-87932416D01*
X169050000Y-87932416D01*
X169050000Y-79375000D01*
X168994813Y-79097555D01*
X168916390Y-78980187D01*
X168837652Y-78862347D01*
X168811484Y-78836179D01*
X169012538Y-78635475D01*
X169143237Y-78320715D01*
X169285671Y-78665429D01*
X169651047Y-79031444D01*
X170057385Y-79200170D01*
X169652971Y-79367271D01*
X169286956Y-79732647D01*
X169088626Y-80210279D01*
X169088174Y-80727452D01*
X169285671Y-81205429D01*
X169651047Y-81571444D01*
X170057385Y-81740170D01*
X169652971Y-81907271D01*
X169286956Y-82272647D01*
X169088626Y-82750279D01*
X169088174Y-83267452D01*
X169285671Y-83745429D01*
X169651047Y-84111444D01*
X170057385Y-84280170D01*
X169652971Y-84447271D01*
X169286956Y-84812647D01*
X169088626Y-85290279D01*
X169088174Y-85807452D01*
X169285671Y-86285429D01*
X169651047Y-86651444D01*
X170040223Y-86813044D01*
X170030352Y-86813807D01*
X169739174Y-86934416D01*
X169673277Y-87157088D01*
X170388400Y-87872211D01*
X171103523Y-87157088D01*
X171037626Y-86934416D01*
X170704929Y-86825816D01*
X171123829Y-86652729D01*
X171489844Y-86287353D01*
X171688174Y-85809721D01*
X171688626Y-85292548D01*
X171491129Y-84814571D01*
X171125753Y-84448556D01*
X170719415Y-84279830D01*
X171123829Y-84112729D01*
X171489844Y-83747353D01*
X171688174Y-83269721D01*
X171688626Y-82752548D01*
X171491129Y-82274571D01*
X171125753Y-81908556D01*
X170719415Y-81739830D01*
X171123829Y-81572729D01*
X171226738Y-81470000D01*
X171695000Y-81470000D01*
X172077684Y-81393880D01*
X172402107Y-81177107D01*
X173082107Y-80497107D01*
X173100219Y-80470000D01*
X173298880Y-80172683D01*
X173375000Y-79790000D01*
X173375000Y-73400000D01*
X173298880Y-73017317D01*
X173082107Y-72692893D01*
X173082104Y-72692891D01*
X172532107Y-72142893D01*
X172207684Y-71926120D01*
X171825000Y-71850000D01*
X171227020Y-71850000D01*
X171125753Y-71748556D01*
X170719415Y-71579830D01*
X171123829Y-71412729D01*
X171489844Y-71047353D01*
X171688174Y-70569721D01*
X171688626Y-70052548D01*
X171491129Y-69574571D01*
X171125753Y-69208556D01*
X170648121Y-69010226D01*
X170130948Y-69009774D01*
X169652971Y-69207271D01*
X169550062Y-69310000D01*
X169340005Y-69310000D01*
X169340000Y-69309999D01*
X168957316Y-69386120D01*
X168632893Y-69602893D01*
X167917893Y-70317893D01*
X167701120Y-70642316D01*
X167629973Y-71000000D01*
X167625000Y-71025000D01*
X167625000Y-74600000D01*
X167701120Y-74982684D01*
X167917893Y-75307107D01*
X168707893Y-76097107D01*
X169032316Y-76313880D01*
X169415000Y-76390001D01*
X169415005Y-76390000D01*
X169549780Y-76390000D01*
X169651047Y-76491444D01*
X170057385Y-76660170D01*
X169652971Y-76827271D01*
X169286956Y-77192647D01*
X169088626Y-77670279D01*
X169088515Y-77797581D01*
X169013428Y-77615857D01*
X168760475Y-77362462D01*
X168429806Y-77225157D01*
X168375414Y-77225109D01*
X162962652Y-71812348D01*
X162727446Y-71655187D01*
X162681415Y-71646031D01*
X162450000Y-71600000D01*
X160960082Y-71600000D01*
X160919813Y-71397555D01*
X160919813Y-71397554D01*
X160762652Y-71162348D01*
X159950000Y-70349696D01*
X159950000Y-66975000D01*
X174250000Y-66975000D01*
X174250000Y-91275000D01*
X174326120Y-91657684D01*
X174542893Y-91982107D01*
X177367893Y-94807107D01*
X177692316Y-95023879D01*
X178075000Y-95100000D01*
X178457684Y-95023879D01*
X178782107Y-94807107D01*
X178998879Y-94482684D01*
X179075000Y-94100000D01*
X178998879Y-93717316D01*
X178782107Y-93392893D01*
X177842450Y-92453236D01*
X184674844Y-92453236D01*
X184811572Y-92784143D01*
X184850000Y-92822638D01*
X184850000Y-95327052D01*
X184812462Y-95364525D01*
X184675157Y-95695194D01*
X184674844Y-96053236D01*
X184811572Y-96384143D01*
X185064525Y-96637538D01*
X185395194Y-96774843D01*
X185753236Y-96775156D01*
X186084143Y-96638428D01*
X186337538Y-96385475D01*
X186474843Y-96054806D01*
X186475156Y-95696764D01*
X186338428Y-95365857D01*
X186300000Y-95327362D01*
X186300000Y-92822948D01*
X186337538Y-92785475D01*
X186474843Y-92454806D01*
X186475156Y-92096764D01*
X186338428Y-91765857D01*
X186085475Y-91512462D01*
X185754806Y-91375157D01*
X185396764Y-91374844D01*
X185065857Y-91511572D01*
X184812462Y-91764525D01*
X184675157Y-92095194D01*
X184674844Y-92453236D01*
X177842450Y-92453236D01*
X176250000Y-90860786D01*
X176250000Y-77408014D01*
X176886099Y-78044113D01*
X176885974Y-78187452D01*
X177083471Y-78665429D01*
X177448847Y-79031444D01*
X177855185Y-79200170D01*
X177450771Y-79367271D01*
X177084756Y-79732647D01*
X176886426Y-80210279D01*
X176885974Y-80727452D01*
X177083471Y-81205429D01*
X177448847Y-81571444D01*
X177855185Y-81740170D01*
X177450771Y-81907271D01*
X177084756Y-82272647D01*
X176886426Y-82750279D01*
X176885974Y-83267452D01*
X177083471Y-83745429D01*
X177448847Y-84111444D01*
X177855185Y-84280170D01*
X177450771Y-84447271D01*
X177084756Y-84812647D01*
X176886426Y-85290279D01*
X176885974Y-85807452D01*
X177083471Y-86285429D01*
X177448847Y-86651444D01*
X177867853Y-86825430D01*
X177476171Y-86987271D01*
X177110156Y-87352647D01*
X176911826Y-87830279D01*
X176911374Y-88347452D01*
X177108871Y-88825429D01*
X177474247Y-89191444D01*
X177951879Y-89389774D01*
X178469052Y-89390226D01*
X178947029Y-89192729D01*
X179313044Y-88827353D01*
X179511374Y-88349721D01*
X179511826Y-87832548D01*
X179314329Y-87354571D01*
X178948953Y-86988556D01*
X178529947Y-86814570D01*
X178921629Y-86652729D01*
X179287644Y-86287353D01*
X179485974Y-85809721D01*
X179486426Y-85292548D01*
X179288929Y-84814571D01*
X178923553Y-84448556D01*
X178517215Y-84279830D01*
X178921629Y-84112729D01*
X179287644Y-83747353D01*
X179485974Y-83269721D01*
X179486426Y-82752548D01*
X179288929Y-82274571D01*
X178923553Y-81908556D01*
X178517215Y-81739830D01*
X178921629Y-81572729D01*
X179287644Y-81207353D01*
X179485974Y-80729721D01*
X179486426Y-80212548D01*
X179288929Y-79734571D01*
X178923553Y-79368556D01*
X178517215Y-79199830D01*
X178921629Y-79032729D01*
X179287644Y-78667353D01*
X179485974Y-78189721D01*
X179486426Y-77672548D01*
X179288929Y-77194571D01*
X178923553Y-76828556D01*
X178517215Y-76659830D01*
X178921629Y-76492729D01*
X179287644Y-76127353D01*
X179485974Y-75649721D01*
X179486426Y-75132548D01*
X179288929Y-74654571D01*
X178923553Y-74288556D01*
X178517215Y-74119830D01*
X178921629Y-73952729D01*
X179287644Y-73587353D01*
X179485974Y-73109721D01*
X179486426Y-72592548D01*
X179288929Y-72114571D01*
X178923553Y-71748556D01*
X178517215Y-71579830D01*
X178921629Y-71412729D01*
X179287644Y-71047353D01*
X179485974Y-70569721D01*
X179486426Y-70052548D01*
X179288929Y-69574571D01*
X178923553Y-69208556D01*
X178445921Y-69010226D01*
X177928748Y-69009774D01*
X177450771Y-69207271D01*
X177084756Y-69572647D01*
X176886426Y-70050279D01*
X176885974Y-70567452D01*
X177083471Y-71045429D01*
X177448847Y-71411444D01*
X177855185Y-71580170D01*
X177450771Y-71747271D01*
X177100662Y-72096769D01*
X176882684Y-71951121D01*
X176500000Y-71875000D01*
X176250000Y-71924728D01*
X176250000Y-67389214D01*
X179907104Y-63732109D01*
X179907107Y-63732107D01*
X180081573Y-63471000D01*
X180123880Y-63407684D01*
X180200001Y-63025000D01*
X180200000Y-63024995D01*
X180200000Y-55422277D01*
X180241717Y-55380633D01*
X180424791Y-54939742D01*
X180424792Y-54937647D01*
X180524793Y-54937647D01*
X180707097Y-55378857D01*
X180875000Y-55547054D01*
X180875000Y-68450000D01*
X180939702Y-68775281D01*
X181123959Y-69051041D01*
X184873959Y-72801041D01*
X185149719Y-72985298D01*
X185475000Y-73050000D01*
X186826863Y-73050000D01*
X187128616Y-73352280D01*
X187412198Y-73470033D01*
X187130628Y-73586376D01*
X186747720Y-73968616D01*
X186540237Y-74468292D01*
X186539764Y-75009334D01*
X186558944Y-75055752D01*
X185837348Y-75777348D01*
X185680187Y-76012554D01*
X185677225Y-76027445D01*
X185625000Y-76290000D01*
X185625000Y-89500000D01*
X185659810Y-89675000D01*
X185680187Y-89777446D01*
X185837348Y-90012652D01*
X187197347Y-91372652D01*
X187354508Y-91477663D01*
X187432555Y-91529813D01*
X187710000Y-91585000D01*
X188738861Y-91585000D01*
X188754858Y-91623715D01*
X189134288Y-92003807D01*
X189438330Y-92130056D01*
X189136285Y-92254858D01*
X188756193Y-92634288D01*
X188550235Y-93130290D01*
X188549766Y-93667353D01*
X188754858Y-94163715D01*
X189134288Y-94543807D01*
X189630290Y-94749765D01*
X190167353Y-94750234D01*
X190663715Y-94545142D01*
X191043807Y-94165712D01*
X191249765Y-93669710D01*
X191250234Y-93132647D01*
X191045142Y-92636285D01*
X190665712Y-92256193D01*
X190361670Y-92129944D01*
X190663715Y-92005142D01*
X191043807Y-91625712D01*
X191249765Y-91129710D01*
X191250234Y-90592647D01*
X191045142Y-90096285D01*
X190794190Y-89844895D01*
X191043807Y-89595712D01*
X191249765Y-89099710D01*
X191250234Y-88562647D01*
X191045142Y-88066285D01*
X190665712Y-87686193D01*
X190382569Y-87568622D01*
X190579387Y-87487097D01*
X190651471Y-87259260D01*
X189900000Y-86507789D01*
X189148529Y-87259260D01*
X189220613Y-87487097D01*
X189439466Y-87559586D01*
X189136285Y-87684858D01*
X188756193Y-88064288D01*
X188739288Y-88105000D01*
X188680305Y-88105000D01*
X188325000Y-87749696D01*
X188325000Y-86120437D01*
X188534037Y-86120437D01*
X188573125Y-86656076D01*
X188702903Y-86969387D01*
X188930740Y-87041471D01*
X189682211Y-86290000D01*
X190117789Y-86290000D01*
X190869260Y-87041471D01*
X191097097Y-86969387D01*
X191265963Y-86459563D01*
X191226875Y-85923924D01*
X191097097Y-85610613D01*
X190869260Y-85538529D01*
X190117789Y-86290000D01*
X189682211Y-86290000D01*
X188930740Y-85538529D01*
X188702903Y-85610613D01*
X188534037Y-86120437D01*
X188325000Y-86120437D01*
X188325000Y-85320740D01*
X189148529Y-85320740D01*
X189900000Y-86072211D01*
X190651471Y-85320740D01*
X190579387Y-85092903D01*
X190069563Y-84924037D01*
X189533924Y-84963125D01*
X189220613Y-85092903D01*
X189148529Y-85320740D01*
X188325000Y-85320740D01*
X188325000Y-82891200D01*
X190457461Y-82891200D01*
X190484788Y-83726185D01*
X190751748Y-84370683D01*
X191057373Y-84534838D01*
X192352211Y-83240000D01*
X191057373Y-81945162D01*
X190751748Y-82109317D01*
X190457461Y-82891200D01*
X188325000Y-82891200D01*
X188325000Y-79157002D01*
X190636588Y-79157002D01*
X190666264Y-79932193D01*
X190905823Y-80510537D01*
X191195869Y-80656342D01*
X192382211Y-79470000D01*
X191195869Y-78283658D01*
X190905823Y-78429463D01*
X190636588Y-79157002D01*
X188325000Y-79157002D01*
X188325000Y-77340304D01*
X189583953Y-76081352D01*
X189628292Y-76099763D01*
X190169334Y-76100236D01*
X190669372Y-75893624D01*
X191052280Y-75511384D01*
X191259763Y-75011708D01*
X191260236Y-74470666D01*
X191053624Y-73970628D01*
X190671384Y-73587720D01*
X190408644Y-73478621D01*
X190585418Y-73405398D01*
X190658738Y-73176527D01*
X189900000Y-72417789D01*
X189141262Y-73176527D01*
X189214582Y-73405398D01*
X189410854Y-73470589D01*
X189130628Y-73586376D01*
X188899933Y-73816668D01*
X188671384Y-73587720D01*
X188387802Y-73469967D01*
X188669372Y-73353624D01*
X189052280Y-72971384D01*
X189152724Y-72729487D01*
X189682211Y-72200000D01*
X190117789Y-72200000D01*
X190876527Y-72958738D01*
X191105398Y-72885418D01*
X191275941Y-72371958D01*
X191237010Y-71832319D01*
X191105398Y-71514582D01*
X190876527Y-71441262D01*
X190117789Y-72200000D01*
X189682211Y-72200000D01*
X189152756Y-71670545D01*
X189053624Y-71430628D01*
X188846831Y-71223473D01*
X189141262Y-71223473D01*
X189900000Y-71982211D01*
X190658738Y-71223473D01*
X190585418Y-70994602D01*
X190071958Y-70824059D01*
X189532319Y-70862990D01*
X189214582Y-70994602D01*
X189141262Y-71223473D01*
X188846831Y-71223473D01*
X188671384Y-71047720D01*
X188171708Y-70840237D01*
X187630666Y-70839764D01*
X187130628Y-71046376D01*
X186826473Y-71350000D01*
X185827082Y-71350000D01*
X182575000Y-68097918D01*
X182575000Y-67157002D01*
X190636588Y-67157002D01*
X190666264Y-67932193D01*
X190905823Y-68510537D01*
X191195869Y-68656342D01*
X192382211Y-67470000D01*
X191195869Y-66283658D01*
X190905823Y-66429463D01*
X190636588Y-67157002D01*
X182575000Y-67157002D01*
X182575000Y-64079000D01*
X189450000Y-64079000D01*
X189450000Y-64644347D01*
X189541344Y-64864872D01*
X189710127Y-65033655D01*
X189930652Y-65125000D01*
X190496000Y-65125000D01*
X190646000Y-64975000D01*
X190646000Y-63929000D01*
X190954000Y-63929000D01*
X190954000Y-64975000D01*
X191104000Y-65125000D01*
X191669348Y-65125000D01*
X191889873Y-65033655D01*
X192058656Y-64864872D01*
X192150000Y-64644347D01*
X192150000Y-64079000D01*
X192000000Y-63929000D01*
X190954000Y-63929000D01*
X190646000Y-63929000D01*
X189600000Y-63929000D01*
X189450000Y-64079000D01*
X182575000Y-64079000D01*
X182575000Y-61502353D01*
X189449766Y-61502353D01*
X189654858Y-61998715D01*
X190034288Y-62378807D01*
X190145533Y-62425000D01*
X189930652Y-62425000D01*
X189710127Y-62516345D01*
X189541344Y-62685128D01*
X189450000Y-62905653D01*
X189450000Y-63471000D01*
X189600000Y-63621000D01*
X190646000Y-63621000D01*
X190646000Y-63601000D01*
X190954000Y-63601000D01*
X190954000Y-63621000D01*
X192000000Y-63621000D01*
X192150000Y-63471000D01*
X192150000Y-62905653D01*
X192058656Y-62685128D01*
X191889873Y-62516345D01*
X191669348Y-62425000D01*
X191455150Y-62425000D01*
X191563715Y-62380142D01*
X191943807Y-62000712D01*
X192149765Y-61504710D01*
X192150234Y-60967647D01*
X191945142Y-60471285D01*
X191565712Y-60091193D01*
X191069710Y-59885235D01*
X190532647Y-59884766D01*
X190036285Y-60089858D01*
X189656193Y-60469288D01*
X189450235Y-60965290D01*
X189449766Y-61502353D01*
X182575000Y-61502353D01*
X182575000Y-57429000D01*
X189525000Y-57429000D01*
X189525000Y-57994347D01*
X189616344Y-58214872D01*
X189785127Y-58383655D01*
X190005652Y-58475000D01*
X190571000Y-58475000D01*
X190721000Y-58325000D01*
X190721000Y-57279000D01*
X191029000Y-57279000D01*
X191029000Y-58325000D01*
X191179000Y-58475000D01*
X191744348Y-58475000D01*
X191964873Y-58383655D01*
X192133656Y-58214872D01*
X192225000Y-57994347D01*
X192225000Y-57429000D01*
X192075000Y-57279000D01*
X191029000Y-57279000D01*
X190721000Y-57279000D01*
X189675000Y-57279000D01*
X189525000Y-57429000D01*
X182575000Y-57429000D01*
X182575000Y-55547059D01*
X182741717Y-55380633D01*
X182924791Y-54939742D01*
X182925207Y-54462353D01*
X182742903Y-54021143D01*
X182405633Y-53683283D01*
X181964742Y-53500209D01*
X181487353Y-53499793D01*
X181046143Y-53682097D01*
X180708283Y-54019367D01*
X180525209Y-54460258D01*
X180524793Y-54937647D01*
X180424792Y-54937647D01*
X180425207Y-54462353D01*
X180242903Y-54021143D01*
X179905633Y-53683283D01*
X179464742Y-53500209D01*
X178987353Y-53499793D01*
X178546143Y-53682097D01*
X178208283Y-54019367D01*
X178025209Y-54460258D01*
X178024793Y-54937647D01*
X178200000Y-55361681D01*
X178200000Y-62610787D01*
X174542893Y-66267893D01*
X174326120Y-66592316D01*
X174265950Y-66894813D01*
X174250000Y-66975000D01*
X159950000Y-66975000D01*
X159950000Y-59725000D01*
X159894813Y-59447555D01*
X159894813Y-59447554D01*
X159737653Y-59212348D01*
X159730540Y-59205235D01*
X160198072Y-59112237D01*
X160636043Y-58819594D01*
X160925001Y-58387138D01*
X161213959Y-58819594D01*
X161651930Y-59112237D01*
X162168553Y-59215000D01*
X162221449Y-59215000D01*
X162738072Y-59112237D01*
X163176043Y-58819594D01*
X163465001Y-58387138D01*
X163753959Y-58819594D01*
X164191930Y-59112237D01*
X164708553Y-59215000D01*
X164761449Y-59215000D01*
X165278072Y-59112237D01*
X165716043Y-58819594D01*
X166005001Y-58387138D01*
X166293959Y-58819594D01*
X166731930Y-59112237D01*
X167248553Y-59215000D01*
X167301449Y-59215000D01*
X167818072Y-59112237D01*
X168256043Y-58819594D01*
X168545001Y-58387138D01*
X168833959Y-58819594D01*
X169271930Y-59112237D01*
X169788553Y-59215000D01*
X169841449Y-59215000D01*
X170358072Y-59112237D01*
X170796043Y-58819594D01*
X171085001Y-58387138D01*
X171373959Y-58819594D01*
X171811930Y-59112237D01*
X172328553Y-59215000D01*
X172381449Y-59215000D01*
X172898072Y-59112237D01*
X173336043Y-58819594D01*
X173628686Y-58381623D01*
X173731449Y-57865000D01*
X173628686Y-57348377D01*
X173336043Y-56910406D01*
X172898072Y-56617763D01*
X172381449Y-56515000D01*
X172328553Y-56515000D01*
X171811930Y-56617763D01*
X171373959Y-56910406D01*
X171085001Y-57342862D01*
X170796043Y-56910406D01*
X170358072Y-56617763D01*
X169841449Y-56515000D01*
X169788553Y-56515000D01*
X169271930Y-56617763D01*
X168833959Y-56910406D01*
X168545001Y-57342862D01*
X168256043Y-56910406D01*
X167818072Y-56617763D01*
X167301449Y-56515000D01*
X167248553Y-56515000D01*
X166731930Y-56617763D01*
X166293959Y-56910406D01*
X166005001Y-57342862D01*
X165716043Y-56910406D01*
X165278072Y-56617763D01*
X164761449Y-56515000D01*
X164708553Y-56515000D01*
X164191930Y-56617763D01*
X163753959Y-56910406D01*
X163465001Y-57342862D01*
X163176043Y-56910406D01*
X162738072Y-56617763D01*
X162221449Y-56515000D01*
X162168553Y-56515000D01*
X161651930Y-56617763D01*
X161213959Y-56910406D01*
X160925001Y-57342862D01*
X160636043Y-56910406D01*
X160198072Y-56617763D01*
X159681449Y-56515000D01*
X159628553Y-56515000D01*
X159325131Y-56575355D01*
X159325156Y-56546764D01*
X159188428Y-56215857D01*
X158935475Y-55962462D01*
X158604806Y-55825157D01*
X158324155Y-55824912D01*
X158583807Y-55565712D01*
X158789765Y-55069710D01*
X158789880Y-54937647D01*
X175524793Y-54937647D01*
X175707097Y-55378857D01*
X176044367Y-55716717D01*
X176485258Y-55899791D01*
X176962647Y-55900207D01*
X177403857Y-55717903D01*
X177741717Y-55380633D01*
X177924791Y-54939742D01*
X177925207Y-54462353D01*
X177742903Y-54021143D01*
X177405633Y-53683283D01*
X176964742Y-53500209D01*
X176487353Y-53499793D01*
X176046143Y-53682097D01*
X175708283Y-54019367D01*
X175525209Y-54460258D01*
X175524793Y-54937647D01*
X158789880Y-54937647D01*
X158790234Y-54532647D01*
X158585142Y-54036285D01*
X158205712Y-53656193D01*
X157709710Y-53450235D01*
X157172647Y-53449766D01*
X156676285Y-53654858D01*
X156296193Y-54034288D01*
X156250000Y-54145533D01*
X156250000Y-53930652D01*
X156158655Y-53710127D01*
X155989872Y-53541344D01*
X155769347Y-53450000D01*
X155204000Y-53450000D01*
X155054000Y-53600000D01*
X155054000Y-54646000D01*
X155074000Y-54646000D01*
X155074000Y-54954000D01*
X155054000Y-54954000D01*
X155054000Y-54974000D01*
X154746000Y-54974000D01*
X154746000Y-54954000D01*
X153700000Y-54954000D01*
X153550000Y-55104000D01*
X153550000Y-55469755D01*
X153497555Y-55480187D01*
X153497553Y-55480188D01*
X153497554Y-55480188D01*
X153262347Y-55637348D01*
X152062348Y-56837348D01*
X151905187Y-57072554D01*
X151905187Y-57072555D01*
X151850000Y-57350000D01*
X151850000Y-63797918D01*
X151550000Y-63497918D01*
X151550000Y-56132050D01*
X151747346Y-56094917D01*
X151951558Y-55963510D01*
X152088556Y-55763007D01*
X152136754Y-55525000D01*
X152136754Y-54025000D01*
X152119002Y-53930652D01*
X153550000Y-53930652D01*
X153550000Y-54496000D01*
X153700000Y-54646000D01*
X154746000Y-54646000D01*
X154746000Y-53600000D01*
X154596000Y-53450000D01*
X154030653Y-53450000D01*
X153810128Y-53541344D01*
X153641345Y-53710127D01*
X153550000Y-53930652D01*
X152119002Y-53930652D01*
X152094917Y-53802654D01*
X151963510Y-53598442D01*
X151763007Y-53461444D01*
X151525000Y-53413246D01*
X150025000Y-53413246D01*
X149802654Y-53455083D01*
X149598442Y-53586490D01*
X149461444Y-53786993D01*
X149413246Y-54025000D01*
X149413246Y-54091403D01*
X149380142Y-54011285D01*
X149000712Y-53631193D01*
X148504710Y-53425235D01*
X147967647Y-53424766D01*
X147471285Y-53629858D01*
X147091193Y-54009288D01*
X146973622Y-54292431D01*
X146892097Y-54095613D01*
X146664260Y-54023529D01*
X145912789Y-54775000D01*
X146664260Y-55526471D01*
X146892097Y-55454387D01*
X146964586Y-55235534D01*
X147089858Y-55538715D01*
X147435000Y-55884459D01*
X147435000Y-61709696D01*
X143805000Y-58079696D01*
X143805000Y-55967128D01*
X143918715Y-55920142D01*
X144094903Y-55744260D01*
X144943529Y-55744260D01*
X145015613Y-55972097D01*
X145525437Y-56140963D01*
X146061076Y-56101875D01*
X146374387Y-55972097D01*
X146446471Y-55744260D01*
X145695000Y-54992789D01*
X144943529Y-55744260D01*
X144094903Y-55744260D01*
X144298807Y-55540712D01*
X144416378Y-55257569D01*
X144497903Y-55454387D01*
X144725740Y-55526471D01*
X145477211Y-54775000D01*
X144725740Y-54023529D01*
X144497903Y-54095613D01*
X144425414Y-54314466D01*
X144300142Y-54011285D01*
X144094955Y-53805740D01*
X144943529Y-53805740D01*
X145695000Y-54557211D01*
X146446471Y-53805740D01*
X146374387Y-53577903D01*
X145864563Y-53409037D01*
X145328924Y-53448125D01*
X145015613Y-53577903D01*
X144943529Y-53805740D01*
X144094955Y-53805740D01*
X143920712Y-53631193D01*
X143424710Y-53425235D01*
X142887647Y-53424766D01*
X142550000Y-53564278D01*
X142550000Y-53325000D01*
X190389263Y-53325000D01*
X190111285Y-53439858D01*
G36*
X161470001Y-92870306D02*
X161470001Y-96073861D01*
X161431286Y-96089858D01*
X161051194Y-96469288D01*
X160924945Y-96773330D01*
X160800143Y-96471285D01*
X160420713Y-96091193D01*
X159924711Y-95885235D01*
X159775000Y-95885104D01*
X159775000Y-91175305D01*
X161470001Y-92870306D01*
X161470001Y-92870306D01*
G37*
X161470001Y-92870306D02*
X161470001Y-96073861D01*
X161431286Y-96089858D01*
X161051194Y-96469288D01*
X160924945Y-96773330D01*
X160800143Y-96471285D01*
X160420713Y-96091193D01*
X159924711Y-95885235D01*
X159775000Y-95885104D01*
X159775000Y-91175305D01*
X161470001Y-92870306D01*
G36*
X156133959Y-58819594D02*
X156571930Y-59112237D01*
X157088553Y-59215000D01*
X157141449Y-59215000D01*
X157658072Y-59112237D01*
X157727956Y-59065542D01*
X157755187Y-59202446D01*
X157912348Y-59437652D01*
X158500000Y-60025305D01*
X158500000Y-70650000D01*
X158542366Y-70862990D01*
X158555187Y-70927446D01*
X158712348Y-71162652D01*
X158967586Y-71417890D01*
X158740857Y-71511572D01*
X158539580Y-71712498D01*
X158500000Y-71672918D01*
X158500000Y-71424842D01*
X158549843Y-71304806D01*
X158550156Y-70946764D01*
X158413428Y-70615857D01*
X158160475Y-70362462D01*
X157829806Y-70225157D01*
X157471764Y-70224844D01*
X157140857Y-70361572D01*
X156887462Y-70614525D01*
X156750157Y-70945194D01*
X156749844Y-71303236D01*
X156800000Y-71424623D01*
X156800000Y-72025000D01*
X156864702Y-72350281D01*
X157048959Y-72626041D01*
X158125000Y-73702082D01*
X158125000Y-74725000D01*
X158189702Y-75050281D01*
X158373959Y-75326041D01*
X159750000Y-76702082D01*
X159750000Y-77000000D01*
X159814702Y-77325281D01*
X159998959Y-77601041D01*
X160486938Y-78089019D01*
X160536572Y-78209143D01*
X160789525Y-78462538D01*
X161120194Y-78599843D01*
X161478236Y-78600156D01*
X161809143Y-78463428D01*
X162062538Y-78210475D01*
X162199843Y-77879806D01*
X162200156Y-77521764D01*
X162063428Y-77190857D01*
X161810475Y-76937462D01*
X161689176Y-76887094D01*
X161450000Y-76647918D01*
X161450000Y-76350000D01*
X161385298Y-76024719D01*
X161201041Y-75748959D01*
X160002150Y-74550068D01*
X160103236Y-74550156D01*
X160434143Y-74413428D01*
X160472638Y-74375000D01*
X160693923Y-74375000D01*
X160675157Y-74420194D01*
X160674844Y-74778236D01*
X160811572Y-75109143D01*
X161064525Y-75362538D01*
X161395194Y-75499843D01*
X161449586Y-75499891D01*
X162821824Y-76872128D01*
X162665857Y-76936572D01*
X162412462Y-77189525D01*
X162275157Y-77520194D01*
X162274844Y-77878236D01*
X162325000Y-77999623D01*
X162325000Y-78825000D01*
X162389702Y-79150281D01*
X162573959Y-79426041D01*
X164461938Y-81314019D01*
X164511572Y-81434143D01*
X164764525Y-81687538D01*
X165095194Y-81824843D01*
X165453236Y-81825156D01*
X165784143Y-81688428D01*
X165900000Y-81572773D01*
X165900000Y-86500000D01*
X165900152Y-86500765D01*
X165899844Y-86853236D01*
X166036572Y-87184143D01*
X166289525Y-87437538D01*
X166620194Y-87574843D01*
X166978236Y-87575156D01*
X167309143Y-87438428D01*
X167562538Y-87185475D01*
X167600000Y-87095256D01*
X167600000Y-95744999D01*
X167627895Y-95885235D01*
X167635384Y-95922886D01*
X167544711Y-95885235D01*
X167007648Y-95884766D01*
X166511286Y-96089858D01*
X166131194Y-96469288D01*
X166004945Y-96773330D01*
X165880143Y-96471285D01*
X165500713Y-96091193D01*
X165460001Y-96074288D01*
X165460001Y-94035001D01*
X165404814Y-93757556D01*
X165292539Y-93589525D01*
X165247653Y-93522348D01*
X159125000Y-87399696D01*
X159125000Y-86050000D01*
X159069813Y-85772555D01*
X159002994Y-85672554D01*
X158912652Y-85537347D01*
X156925000Y-83549696D01*
X156925156Y-83371764D01*
X156788428Y-83040857D01*
X156535475Y-82787462D01*
X156204806Y-82650157D01*
X156050000Y-82650022D01*
X156050000Y-82025000D01*
X155994813Y-81747555D01*
X155994813Y-81747554D01*
X155837652Y-81512348D01*
X155612654Y-81287350D01*
X155612652Y-81287347D01*
X154625000Y-80299696D01*
X154625000Y-76435174D01*
X154859143Y-76338428D01*
X155112538Y-76085475D01*
X155249843Y-75754806D01*
X155250156Y-75396764D01*
X155189514Y-75250000D01*
X155202052Y-75250000D01*
X155239525Y-75287538D01*
X155570194Y-75424843D01*
X155928236Y-75425156D01*
X156259143Y-75288428D01*
X156512538Y-75035475D01*
X156649843Y-74704806D01*
X156650156Y-74346764D01*
X156513428Y-74015857D01*
X156260475Y-73762462D01*
X155929806Y-73625157D01*
X155571764Y-73624844D01*
X155240857Y-73761572D01*
X155202362Y-73800000D01*
X154475000Y-73800000D01*
X154197555Y-73855187D01*
X154141124Y-73892893D01*
X153962347Y-74012348D01*
X153300000Y-74674696D01*
X153300000Y-72925304D01*
X154337652Y-71887652D01*
X154494813Y-71652446D01*
X154513372Y-71559143D01*
X154550000Y-71375000D01*
X154550000Y-65700000D01*
X154494813Y-65422555D01*
X154494813Y-65422554D01*
X154337652Y-65187348D01*
X153300000Y-64149696D01*
X153300000Y-58937796D01*
X153374491Y-59053558D01*
X153574994Y-59190556D01*
X153813001Y-59238754D01*
X155337001Y-59238754D01*
X155559347Y-59196917D01*
X155763559Y-59065510D01*
X155900557Y-58865007D01*
X155948755Y-58627000D01*
X155948755Y-58542417D01*
X156133959Y-58819594D01*
X156133959Y-58819594D01*
G37*
X156133959Y-58819594D02*
X156571930Y-59112237D01*
X157088553Y-59215000D01*
X157141449Y-59215000D01*
X157658072Y-59112237D01*
X157727956Y-59065542D01*
X157755187Y-59202446D01*
X157912348Y-59437652D01*
X158500000Y-60025305D01*
X158500000Y-70650000D01*
X158542366Y-70862990D01*
X158555187Y-70927446D01*
X158712348Y-71162652D01*
X158967586Y-71417890D01*
X158740857Y-71511572D01*
X158539580Y-71712498D01*
X158500000Y-71672918D01*
X158500000Y-71424842D01*
X158549843Y-71304806D01*
X158550156Y-70946764D01*
X158413428Y-70615857D01*
X158160475Y-70362462D01*
X157829806Y-70225157D01*
X157471764Y-70224844D01*
X157140857Y-70361572D01*
X156887462Y-70614525D01*
X156750157Y-70945194D01*
X156749844Y-71303236D01*
X156800000Y-71424623D01*
X156800000Y-72025000D01*
X156864702Y-72350281D01*
X157048959Y-72626041D01*
X158125000Y-73702082D01*
X158125000Y-74725000D01*
X158189702Y-75050281D01*
X158373959Y-75326041D01*
X159750000Y-76702082D01*
X159750000Y-77000000D01*
X159814702Y-77325281D01*
X159998959Y-77601041D01*
X160486938Y-78089019D01*
X160536572Y-78209143D01*
X160789525Y-78462538D01*
X161120194Y-78599843D01*
X161478236Y-78600156D01*
X161809143Y-78463428D01*
X162062538Y-78210475D01*
X162199843Y-77879806D01*
X162200156Y-77521764D01*
X162063428Y-77190857D01*
X161810475Y-76937462D01*
X161689176Y-76887094D01*
X161450000Y-76647918D01*
X161450000Y-76350000D01*
X161385298Y-76024719D01*
X161201041Y-75748959D01*
X160002150Y-74550068D01*
X160103236Y-74550156D01*
X160434143Y-74413428D01*
X160472638Y-74375000D01*
X160693923Y-74375000D01*
X160675157Y-74420194D01*
X160674844Y-74778236D01*
X160811572Y-75109143D01*
X161064525Y-75362538D01*
X161395194Y-75499843D01*
X161449586Y-75499891D01*
X162821824Y-76872128D01*
X162665857Y-76936572D01*
X162412462Y-77189525D01*
X162275157Y-77520194D01*
X162274844Y-77878236D01*
X162325000Y-77999623D01*
X162325000Y-78825000D01*
X162389702Y-79150281D01*
X162573959Y-79426041D01*
X164461938Y-81314019D01*
X164511572Y-81434143D01*
X164764525Y-81687538D01*
X165095194Y-81824843D01*
X165453236Y-81825156D01*
X165784143Y-81688428D01*
X165900000Y-81572773D01*
X165900000Y-86500000D01*
X165900152Y-86500765D01*
X165899844Y-86853236D01*
X166036572Y-87184143D01*
X166289525Y-87437538D01*
X166620194Y-87574843D01*
X166978236Y-87575156D01*
X167309143Y-87438428D01*
X167562538Y-87185475D01*
X167600000Y-87095256D01*
X167600000Y-95744999D01*
X167627895Y-95885235D01*
X167635384Y-95922886D01*
X167544711Y-95885235D01*
X167007648Y-95884766D01*
X166511286Y-96089858D01*
X166131194Y-96469288D01*
X166004945Y-96773330D01*
X165880143Y-96471285D01*
X165500713Y-96091193D01*
X165460001Y-96074288D01*
X165460001Y-94035001D01*
X165404814Y-93757556D01*
X165292539Y-93589525D01*
X165247653Y-93522348D01*
X159125000Y-87399696D01*
X159125000Y-86050000D01*
X159069813Y-85772555D01*
X159002994Y-85672554D01*
X158912652Y-85537347D01*
X156925000Y-83549696D01*
X156925156Y-83371764D01*
X156788428Y-83040857D01*
X156535475Y-82787462D01*
X156204806Y-82650157D01*
X156050000Y-82650022D01*
X156050000Y-82025000D01*
X155994813Y-81747555D01*
X155994813Y-81747554D01*
X155837652Y-81512348D01*
X155612654Y-81287350D01*
X155612652Y-81287347D01*
X154625000Y-80299696D01*
X154625000Y-76435174D01*
X154859143Y-76338428D01*
X155112538Y-76085475D01*
X155249843Y-75754806D01*
X155250156Y-75396764D01*
X155189514Y-75250000D01*
X155202052Y-75250000D01*
X155239525Y-75287538D01*
X155570194Y-75424843D01*
X155928236Y-75425156D01*
X156259143Y-75288428D01*
X156512538Y-75035475D01*
X156649843Y-74704806D01*
X156650156Y-74346764D01*
X156513428Y-74015857D01*
X156260475Y-73762462D01*
X155929806Y-73625157D01*
X155571764Y-73624844D01*
X155240857Y-73761572D01*
X155202362Y-73800000D01*
X154475000Y-73800000D01*
X154197555Y-73855187D01*
X154141124Y-73892893D01*
X153962347Y-74012348D01*
X153300000Y-74674696D01*
X153300000Y-72925304D01*
X154337652Y-71887652D01*
X154494813Y-71652446D01*
X154513372Y-71559143D01*
X154550000Y-71375000D01*
X154550000Y-65700000D01*
X154494813Y-65422555D01*
X154494813Y-65422554D01*
X154337652Y-65187348D01*
X153300000Y-64149696D01*
X153300000Y-58937796D01*
X153374491Y-59053558D01*
X153574994Y-59190556D01*
X153813001Y-59238754D01*
X155337001Y-59238754D01*
X155559347Y-59196917D01*
X155763559Y-59065510D01*
X155900557Y-58865007D01*
X155948755Y-58627000D01*
X155948755Y-58542417D01*
X156133959Y-58819594D01*
M02*
