M48
;DRILL file {KiCad 4.0.2-stable} date 29/05/2019 20:06:35
;FORMAT={-:-/ absolute / metric / decimal}
FMAT,2
METRIC,TZ
T1C0.400
T2C0.600
T3C0.700
T4C0.762
T5C0.810
T6C0.900
T7C1.000
T8C2.300
T9C1.300
%
G90
G05
M71
T1
X151.825Y-80.375
X152.575Y-77.35
X152.625Y-81.575
X152.875Y-71.05
X154.35Y-75.575
X155.15Y-69.95
X155.75Y-74.525
X156.025Y-83.55
X156.35Y-85.55
X156.825Y-77.575
X157.15Y-85.95
X157.65Y-71.125
X157.862Y-79.062
X158.425Y-56.725
X158.725Y-82.25
X159.25Y-72.275
X159.825Y-95.6
X159.85Y-92.925
X159.925Y-73.65
X160.25Y-72.275
X161.3Y-77.7
X161.575Y-74.6
X161.975Y-83.325
X162.175Y-78.575
X162.2Y-76.2
X163.175Y-77.7
X165.275Y-80.925
X166.8Y-86.675
X167.575Y-82.175
X168.25Y-78.125
X170.388Y-75.39
X176.5Y-72.875
X178.075Y-94.1
X185.575Y-92.275
X185.575Y-95.875
T2
X176.725Y-54.7
X179.225Y-54.7
X181.725Y-54.7
T3
X170.388Y-70.31
X170.388Y-72.85
X170.388Y-75.39
X170.388Y-77.93
X170.388Y-80.47
X170.388Y-83.01
X170.388Y-85.55
X170.388Y-88.09
X178.186Y-70.31
X178.186Y-72.85
X178.186Y-75.39
X178.186Y-77.93
X178.186Y-80.47
X178.186Y-83.01
X178.186Y-85.55
X178.212Y-88.09
T4
X154.575Y-57.865
T5
X187.9Y-72.2
X187.9Y-74.74
X189.9Y-72.2
X189.9Y-74.74
T6
X143.155Y-54.775
X145.695Y-54.775
X148.235Y-54.775
X150.775Y-54.775
X154.575Y-97.235
X154.9Y-54.8
X157.115Y-57.865
X157.115Y-97.235
X157.44Y-54.8
X159.655Y-57.865
X159.655Y-97.235
X160.5Y-54.9
X162.195Y-57.865
X162.195Y-97.235
X164.735Y-57.865
X164.735Y-97.235
X167.275Y-57.865
X167.275Y-97.235
X168.Y-54.9
X169.815Y-57.865
X169.815Y-97.235
X172.355Y-57.865
X172.355Y-97.235
X190.8Y-61.235
X190.8Y-63.775
X190.875Y-54.585
X190.875Y-57.125
T7
X189.9Y-86.29
X189.9Y-88.83
X189.9Y-90.86
X189.9Y-93.4
T8
X192.57Y-83.24
X192.57Y-96.96
X192.6Y-67.47
X192.6Y-79.47
T9
X144.4Y-75.35
X144.4Y-79.85
T7
X143.65Y-71.75G85X145.15Y-71.75
G05
X143.65Y-83.45G85X145.15Y-83.45
G05
T0
M30
