G04 #@! TF.FileFunction,Soldermask,Top*
%FSLAX46Y46*%
G04 Gerber Fmt 4.6, Leading zero omitted, Abs format (unit mm)*
G04 Created by KiCad (PCBNEW 4.0.2-stable) date 29/05/2019 20:06:32*
%MOMM*%
G01*
G04 APERTURE LIST*
%ADD10C,0.100000*%
%ADD11R,1.289000X1.416000*%
%ADD12R,1.416000X1.289000*%
%ADD13R,1.100000X0.650000*%
%ADD14R,0.650000X1.100000*%
%ADD15R,2.125000X2.125000*%
%ADD16R,1.314400X1.314400*%
%ADD17R,1.400000X1.300000*%
%ADD18C,1.600000*%
%ADD19R,1.924000X1.924000*%
%ADD20O,1.900000X1.900000*%
%ADD21R,1.900000X1.900000*%
%ADD22C,1.900000*%
%ADD23R,2.400000X1.600000*%
%ADD24C,1.700000*%
%ADD25O,3.900000X2.400000*%
%ADD26C,1.920000*%
%ADD27C,3.100000*%
%ADD28C,3.400000*%
%ADD29C,1.800000*%
G04 APERTURE END LIST*
D10*
D11*
X151662000Y-84700000D03*
X150138000Y-84700000D03*
X158338000Y-86800000D03*
X159862000Y-86800000D03*
X158338000Y-85200000D03*
X159862000Y-85200000D03*
X152312000Y-74050000D03*
X150788000Y-74050000D03*
D12*
X164000000Y-80362000D03*
X164000000Y-78838000D03*
D11*
X158338000Y-88400000D03*
X159862000Y-88400000D03*
D12*
X164000000Y-81838000D03*
X164000000Y-83362000D03*
X186800000Y-95863000D03*
X186800000Y-97387000D03*
D13*
X159400000Y-79950000D03*
X159400000Y-79450000D03*
X159400000Y-78950000D03*
X159400000Y-78450000D03*
X159400000Y-77950000D03*
X159400000Y-77450000D03*
X159400000Y-76950000D03*
X159400000Y-76450000D03*
D14*
X158750000Y-75800000D03*
X158250000Y-75800000D03*
X157750000Y-75800000D03*
X157250000Y-75800000D03*
X156750000Y-75800000D03*
X156250000Y-75800000D03*
X155750000Y-75800000D03*
X155250000Y-75800000D03*
D13*
X154600000Y-76450000D03*
X154600000Y-76950000D03*
X154600000Y-77450000D03*
X154600000Y-77950000D03*
X154600000Y-78450000D03*
X154600000Y-78950000D03*
X154600000Y-79450000D03*
X154600000Y-79950000D03*
D14*
X155250000Y-80600000D03*
X155750000Y-80600000D03*
X156250000Y-80600000D03*
X156750000Y-80600000D03*
X157250000Y-80600000D03*
X157750000Y-80600000D03*
X158250000Y-80600000D03*
X158750000Y-80600000D03*
D15*
X156137500Y-77337500D03*
X156137500Y-79062500D03*
X157862500Y-77337500D03*
X157862500Y-79062500D03*
D16*
X174234000Y-94339000D03*
X174234000Y-92561000D03*
X176266000Y-93450000D03*
X181984000Y-94389000D03*
X181984000Y-92611000D03*
X184016000Y-93500000D03*
D17*
X166650000Y-75650000D03*
X166650000Y-77150000D03*
X166650000Y-78650000D03*
X166650000Y-80150000D03*
X166650000Y-69250000D03*
X166650000Y-70750000D03*
X166650000Y-72250000D03*
X166650000Y-73750000D03*
X171025000Y-91850000D03*
X171025000Y-90350000D03*
X184075000Y-96050000D03*
X184075000Y-97550000D03*
X171025000Y-94850000D03*
X171025000Y-93350000D03*
X179650000Y-92700000D03*
X179650000Y-94200000D03*
D18*
X176725000Y-54700000D03*
X179225000Y-54700000D03*
X181725000Y-54700000D03*
D16*
X155089000Y-86816000D03*
X153311000Y-86816000D03*
X154200000Y-84784000D03*
D19*
X154575001Y-57865000D03*
D20*
X157115001Y-57865000D03*
X159655001Y-57865000D03*
X162195001Y-57865000D03*
X164735001Y-57865000D03*
X167275001Y-57865000D03*
X169815001Y-57865000D03*
X172355001Y-57865000D03*
D21*
X154575001Y-97235000D03*
D22*
X157115001Y-97235000D03*
X159655001Y-97235000D03*
X162195001Y-97235000D03*
X164735001Y-97235000D03*
X167275001Y-97235000D03*
X169815001Y-97235000D03*
X172355001Y-97235000D03*
D21*
X150775000Y-54775000D03*
D22*
X148235000Y-54775000D03*
X145695000Y-54775000D03*
X143155000Y-54775000D03*
D23*
X147000000Y-81100000D03*
X147000000Y-78600000D03*
X147000000Y-76600000D03*
X147000000Y-74100000D03*
D24*
X144400000Y-79850000D03*
X144400000Y-75350000D03*
D25*
X144400000Y-71750000D03*
X144400000Y-83450000D03*
D26*
X187900000Y-74740000D03*
X187900000Y-72200000D03*
X189900000Y-72200000D03*
X189900000Y-74740000D03*
D27*
X192600000Y-79470000D03*
X192600000Y-67470000D03*
D22*
X189900000Y-86290000D03*
X189900000Y-88830000D03*
X189900000Y-90860000D03*
X189900000Y-93400000D03*
D28*
X192570000Y-83240000D03*
X192570000Y-96960000D03*
D21*
X154900000Y-54800000D03*
D22*
X157440000Y-54800000D03*
D21*
X190800000Y-63775000D03*
D22*
X190800000Y-61235000D03*
D21*
X190875000Y-57125000D03*
D22*
X190875000Y-54585000D03*
D29*
X170388400Y-70310000D03*
X170388400Y-72850000D03*
X170388400Y-75390000D03*
X170388400Y-77930000D03*
X170388400Y-80470000D03*
X170388400Y-83010000D03*
X170388400Y-85550000D03*
X170388400Y-88090000D03*
X178211600Y-88090000D03*
X178186200Y-85550000D03*
X178186200Y-83010000D03*
X178186200Y-80470000D03*
X178186200Y-77930000D03*
X178186200Y-75390000D03*
X178186200Y-72850000D03*
X178186200Y-70310000D03*
D22*
X168000000Y-54900000D03*
X160500000Y-54900000D03*
M02*
